<?xml version="1.0" encoding="UTF-8" standalone="no"?>
<svg
   viewBox="0 0 512 512"
   style="height: 512px; width: 512px;"
   version="1.1"
   id="svg409"
   sodipodi:docname="combat-dagger.svg"
   inkscape:version="1.2.1 (9c6d41e410, 2022-07-14)"
   xmlns:inkscape="http://www.inkscape.org/namespaces/inkscape"
   xmlns:sodipodi="http://sodipodi.sourceforge.net/DTD/sodipodi-0.dtd"
   xmlns="http://www.w3.org/2000/svg"
   xmlns:svg="http://www.w3.org/2000/svg">
  <defs
     id="defs413" />
  <sodipodi:namedview
     id="namedview411"
     pagecolor="#ffffff"
     bordercolor="#000000"
     borderopacity="0.25"
     inkscape:showpageshadow="2"
     inkscape:pageopacity="0.0"
     inkscape:pagecheckerboard="0"
     inkscape:deskcolor="#d1d1d1"
     showgrid="false"
     inkscape:zoom="1.0253906"
     inkscape:cx="255.51238"
     inkscape:cy="256.48762"
     inkscape:window-width="1366"
     inkscape:window-height="705"
     inkscape:window-x="-8"
     inkscape:window-y="-8"
     inkscape:window-maximized="1"
     inkscape:current-layer="g407" />
  <g
     class=""
     transform="translate(0,0)"
     style="fill:#000000"
     id="g407">
    <path
       d="m 51.438,20.344 c -0.53,0.008 -1.067,0.03 -1.594,0.062 -8.444,0.54 -16.707,4.267 -22.688,11.063 -11.96,13.59 -10.622,34.6 2.97,46.56 10.514,9.256 25.48,10.558 37.25,4.376 25.11,37.356 71.58,79.415 109.75,98.656 l -54.763,62.22 -0.65667,-0.18143 -14.90533,17.86443 -0.112,0.13 15,13.186 139.821,-158.865 0.02,0.033 L 280.88,93.462 268.45524,78.306381 250.395,97.816 192.345,163.783 C 169.521,128.463 123.083,86.188 82.655,65.159 87.444,52.636 84.31,37.82 73.72,28.5 67.348,22.893 59.368,20.213 51.438,20.344 Z m 0.968,18.562 c 3.184,0.107 6.34,1.312 8.97,3.625 6.008,5.29 6.57,14.18 1.28,20.19 C 57.368,68.727 48.51,69.29 42.5,64 36.49,58.71 35.897,49.823 41.187,43.812 c 2.645,-3.005 6.213,-4.643 9.844,-4.874 0.455,-0.03 0.92,-0.047 1.376,-0.032 z M 243.78,163.812 190.376,224.5 493.656,491.438 C 499.749,422.098 376.153,286.3 321.47,233.125 c -13.02,11.276 -32.71,11.51 -46,-0.188 -13.484,-11.865 -15.638,-31.819 -5.626,-46.218 l -26.063,-22.907 z"
       fill="#fff"
       fill-opacity="1"
       id="path405"
       style="fill:#ffffff"
       sodipodi:nodetypes="cccccccccccccccccccccccscccccccccccc" />
  </g>
</svg>
