<?xml version="1.0" encoding="UTF-8" standalone="no"?>
<!-- Created with Inkscape (http://www.inkscape.org/) -->

<svg
   version="1.1"
   id="svg317"
   width="512"
   height="512"
   viewBox="0 0 512 512"
   sodipodi:docname="flamethrower-small.svg"
   inkscape:version="1.2.1 (9c6d41e410, 2022-07-14)"
   xml:space="preserve"
   xmlns:inkscape="http://www.inkscape.org/namespaces/inkscape"
   xmlns:sodipodi="http://sodipodi.sourceforge.net/DTD/sodipodi-0.dtd"
   xmlns="http://www.w3.org/2000/svg"
   xmlns:svg="http://www.w3.org/2000/svg"><defs
     id="defs321" /><sodipodi:namedview
     id="namedview319"
     pagecolor="#ffffff"
     bordercolor="#000000"
     borderopacity="0.25"
     inkscape:showpageshadow="2"
     inkscape:pageopacity="0.0"
     inkscape:pagecheckerboard="0"
     inkscape:deskcolor="#d1d1d1"
     showgrid="false"
     inkscape:zoom="1.0253906"
     inkscape:cx="246.73524"
     inkscape:cy="253.5619"
     inkscape:window-width="1366"
     inkscape:window-height="705"
     inkscape:window-x="-8"
     inkscape:window-y="-8"
     inkscape:window-maximized="1"
     inkscape:current-layer="g323" /><g
     inkscape:groupmode="layer"
     inkscape:label="Image"
     id="g323"><path
       style="fill:#ffffff;stroke-width:0.882285"
       d="m 200.39843,457.27118 c -16.22312,-2.52937 -34.24585,-14.49739 -45.48008,-30.20111 -2.87665,-4.02112 -5.54454,-8.2732 -5.92863,-9.44907 -0.3841,-1.17587 -1.00348,-2.52278 -1.37641,-2.99313 -0.9034,-1.13941 -3.92298,-9.60221 -6.25521,-17.53115 -1.88464,-6.40723 -4.67719,-24.01863 -4.67719,-29.49698 0,-1.59437 -0.36318,-3.10972 -0.80706,-3.36747 -0.44388,-0.25773 -1.05867,-1.72866 -1.36619,-3.26872 -0.34153,-1.71035 -1.3281,-3.12853 -2.53498,-3.64396 -5.21281,-2.22627 -5.74101,-4.26221 -5.83547,-22.49262 -0.10953,-21.13922 -2.93722,-24.68474 -13.85955,-17.3779 -1.50158,1.00454 -3.00857,1.82643 -3.34885,1.82643 -0.49765,0 -58.268812,36.17107 -59.534069,37.27484 -0.196505,0.17142 0.06062,0.80201 0.571282,1.40131 0.510705,0.59931 1.215393,1.96822 1.565976,3.04205 0.350574,1.07383 2.690081,4.72972 5.198886,8.1242 2.508813,3.39447 4.907504,6.99577 5.330434,8.00288 0.42293,1.00711 3.048911,4.92318 5.835514,8.70237 2.786612,3.7792 5.066561,7.23264 5.066561,7.67432 0,0.44168 0.840981,1.80751 1.868853,3.03517 6.57624,7.85453 -3.974571,19.96065 -13.503825,15.49445 -2.515795,-1.17911 -9.300782,-8.80544 -9.300782,-10.45408 0,-0.35795 -1.433644,-2.65086 -3.185876,-5.09535 -1.752232,-2.4445 -3.185876,-4.69934 -3.185876,-5.01077 0,-0.31144 -2.457676,-3.96599 -5.461502,-8.12122 -3.003825,-4.15524 -5.461501,-7.90444 -5.461501,-8.33154 0,-0.42711 -0.807228,-1.7407 -1.793839,-2.91909 -9.952431,-11.88696 -3.760508,-21.81159 24.911519,-39.92898 52.563605,-33.21412 48.271055,-30.23717 48.909825,-33.91976 0.39608,-2.28341 1.5387,-4.10064 3.70256,-5.88853 2.85815,-2.36155 3.06504,-2.84561 2.38441,-5.57904 -2.02271,-8.12325 1.34368,-13.77148 10.67723,-17.91456 4.43579,-1.96901 5.87432,-3.04043 5.87432,-4.37521 0,-0.97221 0.40788,-2.48366 0.90638,-3.35878 0.68411,-1.20093 0.34551,-2.64021 -1.38078,-5.86924 -7.72147,-14.443 -2.74951,-30.82927 12.30766,-40.56283 6.49575,-4.19912 11.83325,-8.57788 11.83325,-9.70773 0,-0.57168 1.3921,-2.12571 3.09356,-3.45342 3.09356,-2.41399 3.09356,-2.41399 2.19785,-7.54506 -1.80604,-10.34597 0.86936,-24.43498 5.29536,-27.886 4.05285,-3.16006 17.49044,-0.39052 19.92077,4.10574 0.88412,1.63569 1.12213,1.56709 5.4615,-1.57416 9.69868,-7.02083 12.78796,-8.91826 22.93262,-14.08513 2.10733,-1.0733 10.14493,-6.00457 17.86131,-10.95837 7.71639,-4.9538 14.79888,-9.263 15.73886,-9.57599 0.93999,-0.313 2.93791,-1.40637 4.43982,-2.42972 6.55649,-4.46737 12.5615,-2.03826 19.57038,7.91647 1.36538,1.93925 1.36538,1.93925 6.10828,-1.07665 2.6086,-1.65874 4.98634,-3.01589 5.28389,-3.01589 0.29754,0 3.07858,-1.63409 6.18009,-3.63131 9.93215,-6.39578 21.21674,-4.62645 25.57924,4.01062 1.94037,3.84164 0.50316,4.30937 14.70849,-4.78683 9.32691,-5.97237 13.02758,-7.87401 15.60979,-8.0213 2.28295,-0.13022 4.5276,-1.09458 6.89613,-2.96278 1.93134,-1.52335 5.29544,-3.66086 7.4758,-4.75003 15.93277,-7.95899 39.14026,-24.452453 39.41372,-28.011172 0.33063,-4.302461 2.52406,-6.694541 9.93151,-10.830974 7.90251,-4.412879 10.58773,-6.750827 12.0941,-10.529972 1.46629,-3.678575 1.74284,-3.890979 8.64738,-6.641436 2.50319,-0.997158 6.21663,-2.549603 8.25207,-3.449879 5.93362,-2.624422 7.91352,-1.76444 11.98222,5.204561 0.9611,1.646218 2.86615,3.505421 4.23342,4.131563 2.88699,1.322094 4.5789,4.717226 3.40261,6.827952 -2.94348,5.281755 0.97911,5.411152 4.6993,0.155019 6.85601,-9.686639 10.04828,-12.272913 14.46208,-11.716717 8.63104,1.087624 11.59724,8.277339 6.3509,15.393821 -1.45753,1.977082 -4.10796,5.711259 -5.88987,8.298173 -4.0804,5.923827 -12.22484,14.538028 -13.7452,14.538028 -0.63332,0 -1.9318,0.814455 -2.88551,1.809903 -0.95371,0.99544 -3.41943,2.90224 -5.47939,4.23734 -5.1609,3.34488 -7.01983,7.39323 -7.10695,15.47739 -0.0883,8.19182 -7.15279,15.27788 -12.26949,12.3069 -1.01987,-0.59217 -5.65247,1.57382 -12.14412,5.67802 -2.87521,1.8178 -6.97134,4.05112 -9.1025,4.96294 -4.80426,2.05551 -10.36025,5.12069 -17.25361,9.51867 -2.91371,1.85894 -8.09407,4.63897 -11.51193,6.17783 -3.41784,1.53886 -7.4079,3.5613 -8.86678,4.49432 -7.26028,4.64322 -9.84333,4.71121 -15.63317,0.41152 -4.00883,-2.97708 -12.05123,-13.25634 -12.05123,-15.40307 0,-2.07944 -2.0389,-1.37056 -8.72633,3.03393 -3.96167,2.60925 -8.19093,5.10867 -9.39835,5.55427 -1.20743,0.4456 -6.61668,3.68227 -12.02056,7.19259 -6.63938,4.3129 -10.6723,6.38241 -12.43758,6.38241 -1.64765,0 -3.42726,0.82577 -4.81909,2.23615 -1.2137,1.22988 -5.27882,4.18469 -9.0336,6.56623 -3.75479,2.38154 -7.36213,5.03116 -8.0163,5.88804 -0.65419,0.85688 -1.81088,1.55796 -2.57043,1.55796 -0.75955,0 -5.59333,2.69381 -10.74172,5.98625 -5.1484,3.29244 -9.79397,5.98625 -10.32348,5.98625 -0.52952,0 -2.12392,1.18153 -3.54311,2.62563 -1.4192,1.44409 -4.62841,3.60525 -7.1316,4.80256 -8.16489,3.90542 -12.26909,6.6477 -12.82819,8.57132 -0.30198,1.03899 -1.12329,2.33681 -1.82512,2.88404 -2.10739,1.64316 -1.48387,3.22514 2.82006,7.15501 2.93153,2.67674 4.10249,4.43044 4.11852,6.16813 0.0315,3.41427 4.57028,5.42115 12.26057,5.42115 10.62201,0 14.54954,2.78667 25.26862,17.92874 4.50664,6.3662 9.11287,12.53698 10.23608,13.71285 5.10171,5.34091 44.14761,60.90322 44.14761,62.82204 0,3.62417 -11.66034,14.20854 -22.6453,20.55569 -0.81199,0.46917 -2.70517,1.66054 -4.20708,2.64749 -8.09694,5.32078 -17.28019,6.49576 -21.09849,2.69952 -2.29116,-2.27791 -38.70402,-52.46277 -45.76156,-63.06939 -1.09538,-1.64622 -5.09401,-7.57229 -8.88586,-13.16905 -8.34528,-12.31765 -9.46655,-17.616 -5.71992,-27.0283 1.13468,-2.85054 1.88593,-5.3492 1.66944,-5.5526 -0.78962,-0.74185 -30.33588,18.45677 -29.97637,19.4781 2.47789,7.03937 5.08723,16.23744 6.45044,22.73817 0.92398,4.40617 2.02079,8.27973 2.43737,8.6079 0.41658,0.32818 5.67132,4.03491 11.6772,8.23717 53.04582,37.1157 69.45171,94.0043 37.37362,129.5957 -2.88838,3.20472 -14.49885,12.73534 -15.51455,12.73534 -0.31883,0 -3.11395,1.11017 -6.21139,2.46704 -9.52047,4.17055 -24.0318,6.71744 -31.57384,5.54155 z m 16.20899,-18.3605 c 46.28264,-10.23835 47.4098,-71.50937 1.99602,-108.50046 -12.57533,-10.24304 -11.28023,-9.68692 -10.5723,-4.53974 1.13518,8.25341 -2.54894,12.64522 -12.67478,15.10951 -4.36321,1.06186 -29.66767,4.80604 -32.48087,4.80604 -0.38916,0 -0.70757,0.61529 -0.70757,1.36732 0,2.74194 -2.8766,7.03344 -5.05956,7.54818 -1.50169,0.35409 -2.2018,1.1249 -2.2064,2.42922 -0.004,1.0508 -0.25763,4.45286 -0.56424,7.56013 -0.63971,6.48303 1.52445,21.22401 4.2316,28.82308 0.95333,2.67604 1.74341,5.38775 1.75572,6.02603 0.0371,1.92643 5.52492,12.19182 9.39365,17.57173 12.89226,17.92813 29.49473,25.64675 46.88873,21.79896 z"
       id="path392" /></g></svg>
