<?xml version="1.0" encoding="UTF-8" standalone="no"?>
<svg
   viewBox="0 0 512 512"
   style="height: 512px; width: 512px;"
   version="1.1"
   id="svg6"
   sodipodi:docname="lmg.svg"
   inkscape:version="1.2.1 (9c6d41e410, 2022-07-14)"
   xml:space="preserve"
   xmlns:inkscape="http://www.inkscape.org/namespaces/inkscape"
   xmlns:sodipodi="http://sodipodi.sourceforge.net/DTD/sodipodi-0.dtd"
   xmlns="http://www.w3.org/2000/svg"
   xmlns:svg="http://www.w3.org/2000/svg"><defs
     id="defs10" /><sodipodi:namedview
     id="namedview8"
     pagecolor="#ffffff"
     bordercolor="#000000"
     borderopacity="0.25"
     inkscape:showpageshadow="2"
     inkscape:pageopacity="0.0"
     inkscape:pagecheckerboard="0"
     inkscape:deskcolor="#d1d1d1"
     showgrid="false"
     inkscape:zoom="1.0253906"
     inkscape:cx="247.71048"
     inkscape:cy="191.63429"
     inkscape:window-width="1346"
     inkscape:window-height="728"
     inkscape:window-x="4"
     inkscape:window-y="0"
     inkscape:window-maximized="0"
     inkscape:current-layer="svg6" /><path
     style="fill:#ffffff"
     d="m 360.34272,345.40194 c -1.03297,-0.44267 -0.96543,-0.94387 0.31837,-2.36245 1.39118,-1.53724 1.47405,-2.64154 0.5666,-7.55041 -0.67213,-3.63588 -0.71444,-6.16972 -0.11507,-6.89191 0.9771,-1.17733 3.1322,-44.51955 3.5328,-71.04968 0.12458,-8.25 0.34323,-15.45 0.48589,-16 0.14266,-0.55 0.20609,-2.4625 0.14096,-4.25 -0.0945,-2.59407 -0.54097,-3.25 -2.21204,-3.25 -1.22761,0 -2.30248,0.79867 -2.59854,1.93083 -0.57726,2.20743 -2.95179,3.45428 -3.84036,2.01655 -0.32812,-0.5309 -0.30541,-1.88266 0.0505,-3.0039 0.6138,-1.93391 0.29608,-2.02334 -6.18545,-1.74105 -6.43363,0.2802 -6.85268,0.44351 -7.17831,2.79757 -0.39362,2.84557 -1.89165,5 -3.47662,5 -0.70205,0 -0.65938,-0.41818 0.12244,-1.2 1.77367,-1.77367 1.45642,-5.59775 -0.55,-6.62969 -2.09057,-1.07521 -4.30199,-0.42977 -5.9682,1.74192 -1.09872,1.43204 -1.22131,1.41613 -1.25,-0.16223 -0.0215,-1.18267 -0.82745,-1.75 -2.48611,-1.75 -2.33414,0 -2.46879,0.33049 -2.75,6.75 -0.26108,5.95988 -0.5298,6.75728 -2.29569,6.81223 -1.1,0.0342 -2.53073,-0.33201 -3.1794,-0.81385 -0.67955,-0.50479 -5.97728,-0.42666 -12.5,0.18435 -14.55011,1.36296 -41.36296,1.38256 -43.88634,0.0321 -1.5748,-0.84279 -1.9343,-2.12508 -1.9343,-6.89931 v -5.86412 l -4.66565,-0.37108 c -2.5661,-0.20409 -5.7161,0.17391 -7,0.84001 -1.28389,0.66609 -2.33435,0.78776 -2.33435,0.27038 0,-1.48999 -24.17291,-1.12582 -26.17196,0.39428 -0.91958,0.69926 -1.81958,2.82245 -2,4.7182 l -0.32804,3.44682 -6.34032,0.50435 c -5.43478,0.43231 -6.69686,0.91884 -8.83666,3.40651 -1.57984,1.83667 -2.33827,3.72903 -2.0658,5.15435 0.31051,1.62434 0.0399,2.10229 -0.97081,1.71445 -0.77075,-0.29576 -1.15564,-1.17805 -0.85534,-1.96064 0.30246,-0.78817 0.10505,-1.15036 -0.44252,-0.81194 -0.5437,0.33602 -1.05709,-0.4281 -1.14086,-1.69806 -0.0838,-1.26996 -0.19709,-2.97801 -0.2518,-3.79567 -0.0547,-0.81766 -0.8211,-1.62562 -1.70309,-1.79548 -1.26919,-0.24442 -1.72684,0.88523 -2.19455,5.41687 -0.3713,3.5975 -1.15727,6.04263 -2.11458,6.57837 -0.83799,0.46897 -2.40942,3.65037 -3.49206,7.06978 -1.08264,3.41941 -2.91082,8.83511 -4.06262,12.03488 -1.42593,3.96132 -1.88872,6.91299 -1.4503,9.25 0.6433,3.4291 0.64036,3.43223 -3.22443,3.43223 -3.48671,0 -20.89604,-4.20845 -22.00761,-5.32002 -0.81473,-0.81473 3.30323,-6.69452 4.1506,-5.92639 0.45287,0.41053 0.55589,0.27483 0.22893,-0.30155 -0.32696,-0.57638 2.08859,-5.75138 5.36789,-11.5 7.0432,-12.34675 7.71699,-14.39834 5.52445,-16.82108 -0.89019,-0.98364 -1.61852,-2.31551 -1.61852,-2.9597 0,-0.64419 -0.3375,-1.12259 -0.75,-1.06311 -1.37055,0.19764 -5.25,-1.3299 -5.25,-2.06718 0,-0.39918 -2.98502,-0.82241 -6.63338,-0.94052 -3.64836,-0.11811 -8.71086,-0.92611 -11.25,-1.79556 -3.44477,-1.17955 -8.07882,-1.53839 -18.25635,-1.41369 -17.86566,0.21889 -33.594103,3.38272 -36.981633,7.43898 -2.29898,2.75282 -2.33296,5.08797 -0.12863,8.83978 1.67023,2.84278 1.66872,3.03826 -0.0331,4.28877 -2.8792,2.1156 -45.158104,4.90681 -49.915699,3.29539 -3.814403,-1.29195 -4.582235,-4.75655 -5.05588,-22.81303 -0.405002,-15.43965 -0.788125,-17.35544 -4.7076,-23.54016 -1.455168,-2.29618 -0.64832,-7.89636 0.991642,-6.88281 0.533876,0.32995 0.970683,0.17584 0.970683,-0.34247 0,-1.28981 3.862843,-2.20659 4.558021,-1.08177 0.308007,0.49837 1.378355,0.90612 2.378551,0.90612 1.000196,0 2.355131,0.64655 3.010966,1.43679 0.655835,0.79023 3.748436,1.71116 6.872445,2.04651 21.834953,2.34391 23.187378,2.65795 27.022244,6.27469 5.359132,5.05431 8.802034,6.55621 13.573487,5.92118 6.360665,-0.84655 25.232843,-5.42072 27.606853,-6.69125 1.17354,-0.62806 2.79692,-0.88743 3.60751,-0.57638 0.81059,0.31105 1.2673,0.23142 1.0149,-0.17696 -0.25239,-0.40838 1.72447,-2.09072 4.39303,-3.73854 2.66856,-1.64782 5.09851,-3.96173 5.3999,-5.14201 0.40594,-1.58975 2.46116,-2.84375 7.9292,-4.83806 4.05968,-1.48064 8.45035,-2.60264 9.75706,-2.49333 1.30671,0.10931 5.18833,0.14893 8.62583,0.0881 6.00352,-0.10633 6.25,-0.21125 6.25,-2.66036 0,-3.26177 2.45252,-8.02627 4.5448,-8.82915 0.89033,-0.34166 2.79182,-0.62119 4.22555,-0.62119 h 2.60677 l -2.18856,2.03895 c -3.94719,3.67737 -1.78724,8.83009 3.17896,7.58366 3.31814,-0.8328 3.89107,-4.02414 1.31125,-7.30386 -2.03318,-2.58477 -2.04,-2.66864 -0.15327,-1.88661 1.08597,0.45013 3.71679,1.16164 5.84626,1.58113 2.12946,0.41949 4.20478,1.30155 4.6118,1.96013 0.40703,0.65858 1.13974,1.04649 1.62824,0.86201 0.48851,-0.18448 1.02786,1.35209 1.19857,3.41459 l 0.31036,3.75 12.68964,0.20201 c 6.97929,0.11111 14.03963,0.0923 15.68963,-0.0418 1.65,-0.13412 5.83161,-0.48927 9.29246,-0.78922 3.55209,-0.30786 6.81834,-0.11415 7.5,0.44479 0.66415,0.54458 5.61123,1.14633 10.99352,1.33721 7.70487,0.27325 9.97485,0.0416 10.67411,-1.08917 0.6522,-1.0547 3.09989,-1.45005 9.21402,-1.48827 10.24208,-0.064 25.42371,1.07656 27.0913,2.03532 0.67902,0.3904 0.91235,0.35294 0.5185,-0.0833 -0.39385,-0.43619 0.34308,-1.62622 1.63762,-2.64451 1.29454,-1.01828 2.65119,-3.03664 3.01476,-4.48524 0.36358,-1.4486 0.92472,-2.37015 1.24698,-2.04788 0.80889,0.80888 -1.7064,6.65006 -2.86361,6.65006 -0.51573,0 -0.65958,0.45 -0.31966,1 0.33992,0.55 0.14148,1 -0.44098,1 -0.58246,0 -1.05902,0.45 -1.05902,1 0,0.55 0.675,1 1.5,1 0.825,0 1.5,0.675 1.5,1.5 0,0.825 0.675,1.5 1.5,1.5 0.825,0 1.5,-0.63518 1.5,-1.41152 0,-1.65988 3.21341,-1.44824 3.77912,0.24889 0.55304,1.65912 2.90124,1.43798 3.58251,-0.33737 0.80756,-2.10448 6.26939,-1.92591 7.64672,0.25 0.79327,1.25321 1.25685,1.39515 1.63302,0.5 0.28891,-0.6875 1.5753,-1.25 2.85863,-1.25 1.28333,0 2.59583,0.5625 2.91667,1.25 0.46666,1 0.7,1 1.16666,0 0.69189,-1.48262 4.41667,-1.69346 4.41667,-0.25 0,0.55 0.675,1 1.5,1 0.825,0 1.5,-0.45 1.5,-1 0,-0.55 0.9,-1 2,-1 1.1,0 2,0.45 2,1 0,0.55 0.675,1 1.5,1 0.825,0 1.5,-0.45 1.5,-1 0,-1.47792 4.09807,-1.21391 5.92126,0.38146 2.38375,2.08589 14.17928,4.69014 24.17692,5.33786 8.5169,0.55178 10.20247,0.0746 8.01536,-2.26932 -0.48755,-0.5225 -0.51918,-1.85 -0.0703,-2.95 0.4489,-1.1 0.84781,-1.48565 0.88646,-0.85699 0.1264,2.05544 3.26125,2.47496 4.66554,0.62436 1.20697,-1.59056 1.35617,-1.41722 1.49137,1.73263 0.0826,1.925 0.10141,3.82406 0.0418,4.22014 -0.40262,2.67312 5.43766,3.00032 46.52316,2.6064 23.29162,-0.22332 42.34843,-0.0506 42.34843,0.38371 0,0.43436 -1.77344,0.78975 -3.94098,0.78975 -3.67828,0 -6.02324,1.36912 -4.66731,2.72504 0.32558,0.32559 2.67074,0.56055 5.21146,0.52214 2.90619,-0.0439 4.26838,0.28127 3.67281,0.87684 -1.04059,1.04059 -7.28283,1.23714 -14.27598,0.4495 -4.37391,-0.49264 -24.59446,-0.70919 -57.71482,-0.61811 -14.39928,0.0396 -16.31749,0.24053 -17.13183,1.79459 -0.54401,1.03818 -0.55426,2.71163 -0.0252,4.11414 0.71744,1.90186 1.16954,2.13367 2.31204,1.18548 0.78112,-0.64827 3.13912,-1.03714 5.24,-0.86415 3.75812,0.30945 3.82153,0.38314 3.92784,4.56453 0.10306,4.05353 -0.7749,5.40709 -2.10805,3.25 -0.33992,-0.55 -1.90398,-1 -3.47568,-1 -1.57171,0 -3.03578,-0.53438 -3.25349,-1.1875 -0.26263,-0.78791 -1.04964,-0.53553 -2.33879,0.75 -1.92029,1.91491 -9.43202,3.02868 -9.43202,1.39849 0,-0.44005 -1.74682,-0.11393 -3.88181,0.72472 -3.58323,1.40753 -3.92324,1.88208 -4.42036,6.16955 -0.29619,2.55461 -0.12438,5.07224 0.38182,5.59474 1.32256,1.36517 1.13643,8.31131 -0.23497,8.76844 -0.87276,0.29092 -0.87673,3.79655 -0.0163,14.33333 0.62648,7.67153 1.66141,22.27323 2.29983,32.44823 1.0556,16.82389 1.35153,18.65654 3.26626,20.22776 2.05834,1.68908 1.99639,1.72827 -2.76695,1.75 -3.80444,0.0174 -4.64344,-0.25369 -3.82769,-1.23662 0.72271,-0.87081 0.73276,-4.95487 0.0326,-13.24931 -1.93827,-22.96172 -3.66685,-17.63164 -4.21866,13.00817 -0.1882,10.45 -0.66271,19.75169 -1.05446,20.67043 -0.51661,1.21156 -0.14891,1.76096 1.33854,2 2.89363,0.46501 1.23564,2.68189 -2.44761,3.27267 -1.62266,0.26027 -3.5403,0.22038 -4.26142,-0.0886 z M 146.15385,231.51537 c 0,-0.29266 -0.65204,-2.09266 -1.44897,-4 -1.62841,-3.89732 -3.06217,-4.44528 -3.84078,-1.46788 -0.28766,1.1 -0.14546,2 0.31598,2 0.46145,0 1.12464,0.9 1.47377,2 0.54705,1.7236 3.5,2.96205 3.5,1.46788 z m 205,-8.96788 c 0,-0.825 -0.675,-1.5 -1.5,-1.5 -0.825,0 -1.5,0.675 -1.5,1.5 0,0.825 0.675,1.5 1.5,1.5 0.825,0 1.5,-0.675 1.5,-1.5 z m 28,-0.52475 c 0,-2.56695 -3.56573,-3.97525 -10.0651,-3.97525 -3.51325,0 -4.9349,0.39491 -4.9349,1.37083 0,0.9326 1.90839,1.58675 5.96954,2.04621 3.28325,0.37146 6.23481,1.10459 6.55902,1.62917 1.0255,1.6593 2.47144,1.03273 2.47144,-1.07096 z m -238,-3.35313 c 0,-1.50212 -3.22248,-7.62212 -4.01342,-7.62212 -1.26512,0 -1.24297,0.96608 0.11125,4.85078 0.6038,1.73207 1.7288,3.14922 2.5,3.14922 0.77119,0 1.40217,-0.17004 1.40217,-0.37788 z m 97,-10.00554 c 0,-2.67472 -8.86269,-2.52851 -9.75919,0.161 -0.28545,0.85635 1.11481,1.22242 4.67586,1.22242 3.66147,0 5.08333,-0.38696 5.08333,-1.38342 z m 39,-4.61658 c 0,-0.55 -0.45,-1 -1,-1 -0.55,0 -1,0.45 -1,1 0,0.55 0.45,1 1,1 0.55,0 1,-0.45 1,-1 z m 22,-0.5 c 0,-0.825 -0.675,-1.5 -1.5,-1.5 -2.60246,0 -1.75909,1.97081 1.25,2.92105 0.1375,0.0434 0.25,-0.59605 0.25,-1.42105 z m -7,-0.5 c 0,-0.55 -0.45,-1 -1,-1 -0.55,0 -1,0.45 -1,1 0,0.55 0.45,1 1,1 0.55,0 1,-0.45 1,-1 z m 94.87461,-3.30093 c -2.08742,-1.58904 -1.43703,-11.69907 0.75262,-11.69907 1.0229,0 1.37277,1.65663 1.37277,6.5 0,3.575 -0.1125,6.48569 -0.25,6.4682 -0.1375,-0.0175 -0.98143,-0.5886 -1.87539,-1.26913 z m -84.87461,-14.73481 c -2.81507,-2.16718 -15.50187,-6.12574 -27.5,-8.5806 -4.4,-0.90026 -8.39455,-1.99692 -8.87678,-2.43703 -1.34124,-1.22408 0.21122,-5.94663 1.95485,-5.94663 0.97615,0 1.25793,-0.45765 0.76962,-1.25 -0.45059,-0.73115 0.25739,-0.57805 1.70565,0.36886 1.3618,0.89037 3.96221,1.94528 5.77869,2.34425 1.81648,0.39896 4.50988,1.35521 5.98533,2.12498 1.47545,0.76977 3.47014,1.40236 4.43264,1.40575 0.9625,0.003 1.75,0.35801 1.75,0.78805 0,0.43004 1.01349,0.86577 2.2522,0.96829 2.89644,0.23972 14.71497,4.10355 12.80667,4.18689 -1.20149,0.0525 -1.18316,0.27079 0.11026,1.31293 1.94641,1.56828 3.11224,4.75 1.74047,4.75 -0.5652,0 -0.74952,0.45 -0.4096,1 0.85456,1.38271 0.39314,1.19155 -2.5,-1.03574 z"
     id="path411" /></svg>
