<?xml version="1.0" encoding="UTF-8" standalone="no"?>
<svg
   viewBox="0 0 512 512"
   style="height: 512px; width: 512px;"
   version="1.1"
   id="svg237"
   sodipodi:docname="rifle very heavy.svg"
   inkscape:version="1.2.1 (9c6d41e410, 2022-07-14)"
   xmlns:inkscape="http://www.inkscape.org/namespaces/inkscape"
   xmlns:sodipodi="http://sodipodi.sourceforge.net/DTD/sodipodi-0.dtd"
   xmlns="http://www.w3.org/2000/svg"
   xmlns:svg="http://www.w3.org/2000/svg">
  <defs
     id="defs241" />
  <sodipodi:namedview
     id="namedview239"
     pagecolor="#ffffff"
     bordercolor="#000000"
     borderopacity="0.25"
     inkscape:showpageshadow="2"
     inkscape:pageopacity="0.0"
     inkscape:pagecheckerboard="0"
     inkscape:deskcolor="#d1d1d1"
     showgrid="false"
     inkscape:zoom="1.0253906"
     inkscape:cx="256"
     inkscape:cy="256.48762"
     inkscape:window-width="1366"
     inkscape:window-height="705"
     inkscape:window-x="-8"
     inkscape:window-y="-8"
     inkscape:window-maximized="1"
     inkscape:current-layer="svg237" />
  <g
     class=""
     transform="translate(0,0)"
     style=""
     id="g235" />
  <path
     style="fill:#ffffff;stroke-width:0.226663"
     d="m 137.4287,239.12143 c -6.05461,-6.59637 -5.98234,-6.34175 -1.95442,-6.88428 3.00753,-0.40509 3.03941,-0.39259 5.48394,2.14984 2.16573,2.25248 3.01906,2.73116 3.70059,2.07585 0.25938,-0.24939 0.5183,-0.49656 0.57606,-0.54854 0.0577,-0.052 -0.71129,-1.01198 -1.70872,-2.13297 -0.99743,-1.12099 -1.82929,-2.13491 -1.84858,-2.25318 -0.36632,-2.24608 41.95242,-29.52451 43.46518,-28.01744 2.06845,2.06068 2.73519,2.03112 2.54928,-0.11296 -0.0896,-1.03392 -0.0896,-1.03392 2.12126,-3.15968 2.26745,-2.18014 2.62178,-4.08403 0.5491,-2.95078 -1.96168,1.0726 -3.92841,-1.25877 -3.41141,-4.04384 0.87056,-4.68952 5.75853,-6.22477 6.3108,-1.98213 0.12948,0.99467 0.12948,0.99467 0.68678,0.4588 0.55733,-0.53585 0.55733,-0.53585 -12.7528,-14.37912 C 165.18812,160.69213 165.19369,160.70162 168.33892,157.67753 169.39038,156.66656 64.344987,45.84643 60.012793,43.396291 59.186044,42.928706 58.208457,42.080464 55.904532,39.831578 53.369916,37.357478 52.766046,36.843849 52.168912,36.654136 50.712249,36.191283 34.378787,18.898742 33.398361,16.781405 c -0.933474,-2.015897 -1.483017,-4.83854 -1.082259,-5.558733 0.157913,-0.284043 0.313471,-0.733571 0.345514,-0.999103 0.03205,-0.2655331 0.113162,-0.9390405 0.180259,-1.496664 0.210575,-1.7499987 1.703816,-2.7524063 3.446436,-2.3135326 0.378711,0.095318 0.821821,0.00549 1.048731,-0.2126386 1.508304,-1.4502136 1.025453,-1.8664691 16.479019,14.2061032 14.881686,15.477776 14.028581,14.37289 13.276025,17.194339 -0.54764,2.05319 108.357324,113.794854 109.734254,112.592574 1.31702,-1.14988 2.44688,-1.20631 3.44153,-0.17182 0.31421,0.32681 0.46398,0.28181 1.10083,-0.33048 0.66107,-0.63562 0.78549,-0.6674 1.20598,-0.30794 0.30128,0.2576 0.59958,0.31834 0.83469,0.16999 0.56729,-0.35789 1.61111,0.79021 1.13479,1.24816 -0.32085,0.3085 -0.28261,0.38532 0.70068,1.40799 0.98333,1.02271 1.05859,1.06389 1.37939,0.75543 0.28658,-0.27553 0.4276,-0.23453 0.90667,0.26372 0.47904,0.49825 0.51456,0.64074 0.22794,0.91631 -0.32086,0.3085 -0.28261,0.38532 0.70069,1.408 0.98333,1.02269 1.05858,1.06387 1.3794,0.75541 0.29733,-0.28588 0.42128,-0.24107 1.00121,0.36208 0.5799,0.60314 0.61979,0.72878 0.3225,1.01464 -0.32086,0.30849 -0.28262,0.38531 0.70067,1.40801 0.98332,1.02269 1.05859,1.06387 1.37942,0.75541 0.28654,-0.27554 0.42756,-0.23454 0.90664,0.26373 0.47907,0.49824 0.51456,0.64074 0.22795,0.9163 -0.32085,0.3085 -0.28262,0.38531 0.70068,1.40799 0.98333,1.02271 1.05858,1.06388 1.37941,0.75542 0.29734,-0.28589 0.42128,-0.24107 1.00121,0.36208 0.57989,0.60312 0.6198,0.72879 0.32249,1.01465 -0.32084,0.30849 -0.28262,0.38531 0.70068,1.40797 0.9833,1.02271 1.05858,1.06389 1.3794,0.75542 0.28657,-0.27551 0.42758,-0.23452 0.90667,0.26374 0.482,0.50134 0.51528,0.64004 0.22115,0.92284 -0.50201,0.48268 1.67227,2.66619 2.27583,2.2854 0.56729,-0.3579 1.6111,0.79018 1.13478,1.24816 -0.32083,0.30848 -0.2826,0.38529 0.7007,1.40799 0.98332,1.02269 1.05859,1.06388 1.37939,0.75542 0.47633,-0.45796 1.58254,0.63008 1.20267,1.18291 -0.22019,0.32031 -0.13957,0.46616 0.79506,1.43819 0.93459,0.97204 1.07715,1.05829 1.40589,0.85091 0.56727,-0.35791 1.61108,0.79018 1.13477,1.24816 -0.32085,0.30848 -0.28261,0.38527 0.7007,1.40799 0.98332,1.0227 1.05857,1.06387 1.3794,0.75543 0.47631,-0.45799 1.58254,0.63008 1.20265,1.18289 -0.37329,0.54318 1.64353,2.64078 2.20095,2.28912 0.56728,-0.3579 1.61109,0.79018 1.13478,1.24817 -0.32084,0.30845 -0.2826,0.38527 0.70069,1.40797 0.99018,1.02983 1.05674,1.06566 1.38799,0.74715 0.48446,-0.46581 1.63821,0.81292 1.24708,1.38211 -0.39733,0.57815 1.65124,2.64402 2.14815,2.16625 0.28654,-0.27551 0.42755,-0.23452 0.90663,0.26373 0.47905,0.49824 0.51455,0.64074 0.22795,0.91631 -0.32085,0.30848 -0.28261,0.3853 0.7007,1.40799 0.98332,1.02271 1.05859,1.06388 1.3794,0.75543 0.29735,-0.28588 0.42128,-0.24109 1.0012,0.36207 0.57991,0.60314 0.61979,0.72879 0.32249,1.01464 -0.32084,0.30849 -0.28261,0.38531 0.7007,1.40799 0.9833,1.02271 1.05856,1.06389 1.3794,0.75543 0.28655,-0.27554 0.42755,-0.23454 0.90664,0.26372 0.47905,0.49824 0.51456,0.64074 0.22797,0.91632 -0.32086,0.30847 -0.28262,0.38528 0.70069,1.40797 0.98331,1.02271 1.05857,1.0639 1.3794,0.75542 0.29733,-0.28587 0.42126,-0.24106 1.00117,0.36208 0.57993,0.60315 0.61982,0.72879 0.32252,1.01464 -0.32085,0.3085 -0.28261,0.3853 0.70068,1.40798 0.98332,1.02272 1.05859,1.0639 1.37943,0.75543 0.28654,-0.27552 0.42756,-0.23452 0.90664,0.26374 0.47903,0.49824 0.51453,0.64074 0.22793,0.91628 -0.49689,0.47777 1.48696,2.60586 2.08028,2.23154 0.58413,-0.36851 1.81656,0.83454 1.33209,1.30035 -0.33127,0.31851 -0.29812,0.38637 0.69209,1.41625 0.98332,1.02273 1.05858,1.06389 1.37939,0.75544 0.47632,-0.45797 1.58254,0.63009 1.20265,1.1829 -0.37327,0.54318 1.64356,2.64079 2.20096,2.28912 0.5673,-0.3579 1.61108,0.79018 1.13477,1.24814 -0.32083,0.30849 -0.2826,0.3853 0.70071,1.40799 0.98331,1.02271 1.05857,1.06389 1.3794,0.75543 0.47631,-0.45796 1.58254,0.63009 1.20263,1.18289 -0.2201,0.32042 -0.13957,0.46617 0.79508,1.43822 0.93459,0.97204 1.07716,1.05829 1.40589,0.85091 0.56729,-0.35789 1.61108,0.79018 1.13477,1.24815 -0.32083,0.30849 -0.28259,0.3853 0.7007,1.40799 0.98332,1.02269 1.05858,1.06387 1.37938,0.75542 0.47631,-0.45796 1.58256,0.63008 1.20266,1.1829 -0.22018,0.32032 -0.13957,0.46616 0.79507,1.43822 0.9346,0.97203 1.07715,1.05828 1.4059,0.8509 0.56728,-0.3579 1.61108,0.79019 1.13477,1.24816 -0.32084,0.30848 -0.2826,0.38528 0.7007,1.40796 0.98331,1.02273 1.05857,1.0639 1.37939,0.75545 0.29734,-0.2859 0.42127,-0.24109 1.00121,0.36206 0.57989,0.60315 0.6198,0.7288 0.32249,1.01466 -0.32083,0.30849 -0.28261,0.38529 0.70069,1.40798 0.98331,1.02269 1.05858,1.06388 1.37941,0.75542 0.28655,-0.27552 0.42756,-0.23454 0.90665,0.26373 0.47904,0.49823 0.51454,0.64073 0.22794,0.91629 -0.32084,0.30849 -0.28259,0.3853 0.70071,1.40801 0.98331,1.02269 1.05857,1.06388 1.37937,0.75541 0.29735,-0.28588 0.42128,-0.24109 1.00121,0.36207 0.57991,0.60314 0.6198,0.7288 0.32248,1.01464 -0.32083,0.30849 -0.2826,0.38531 0.70072,1.408 0.98332,1.0227 1.05858,1.06388 1.37938,0.75543 0.28658,-0.27553 0.42758,-0.23454 0.90666,0.26373 0.47905,0.49822 0.51455,0.64074 0.22793,0.9163 -0.49688,0.47776 1.48698,2.60585 2.08027,2.23152 0.58417,-0.3685 1.8166,0.83455 1.3321,1.30037 -0.33124,0.3185 -0.2981,0.38636 0.6921,1.41625 0.98332,1.02271 1.05858,1.06389 1.3794,0.75543 0.47631,-0.45797 1.58254,0.63009 1.20265,1.18289 -0.2202,0.32032 -0.13957,0.46618 0.79506,1.43822 0.93462,0.97204 1.07715,1.05828 1.40589,0.85091 0.5673,-0.35791 1.61109,0.79017 1.13478,1.24814 -0.32085,0.30849 -0.28261,0.38531 0.70069,1.40801 0.98333,1.02269 1.05858,1.06387 1.37942,0.75541 0.47631,-0.45798 1.58252,0.63008 1.20263,1.18289 -0.22019,0.32033 -0.13956,0.46618 0.79505,1.43822 0.93462,0.97205 1.07717,1.0583 1.40592,0.85091 0.56728,-0.35789 1.61107,0.79017 1.13476,1.24815 -0.32085,0.30849 -0.28261,0.38529 0.7007,1.408 0.98333,1.0227 1.05858,1.06387 1.37939,0.75541 0.47631,-0.45797 1.58255,0.63008 1.20267,1.1829 -0.37327,0.54323 1.64352,2.64079 2.20095,2.28911 0.56729,-0.35789 1.6111,0.7902 1.13478,1.24817 -0.32085,0.30848 -0.28262,0.38529 0.70069,1.40798 0.98331,1.02271 1.05857,1.06387 1.37939,0.75541 0.29733,-0.28588 0.42135,-0.24097 1.00119,0.36209 0.57992,0.60313 0.61981,0.72879 0.32251,1.01464 -0.32084,0.3085 -0.28261,0.38529 0.7007,1.40799 0.98332,1.02272 1.05858,1.06389 1.37939,0.75541 0.28657,-0.27551 0.42758,-0.23451 0.90665,0.26373 0.47904,0.49822 0.51455,0.64074 0.22795,0.91629 -0.32085,0.3085 -0.28262,0.38532 0.7007,1.40801 0.9833,1.02271 1.05858,1.06389 1.37939,0.75542 0.29734,-0.28588 0.42136,-0.24097 1.0012,0.36207 0.5799,0.60314 0.61979,0.72879 0.32248,1.01464 -0.32084,0.30849 -0.2826,0.3853 0.7007,1.408 0.98332,1.0227 1.05858,1.06388 1.37941,0.75542 0.28656,-0.27553 0.42756,-0.23452 0.90665,0.26372 0.47904,0.49824 0.51456,0.64076 0.22796,0.91631 -0.32085,0.3085 -0.28262,0.3853 0.70068,1.40799 0.98331,1.02269 1.05858,1.06388 1.3794,0.75542 0.29734,-0.28588 0.42136,-0.24098 1.00119,0.36209 0.57992,0.60313 0.6198,0.72877 0.32249,1.01463 -0.32084,0.30848 -0.2826,0.3853 0.70071,1.408 0.98332,1.02269 1.05858,1.06389 1.37939,0.7554 0.47631,-0.45795 1.58254,0.6301 1.20265,1.1829 -0.2202,0.32033 -0.13958,0.46618 0.79507,1.43823 0.93461,0.97205 1.07715,1.05828 1.40591,0.85091 0.28436,-0.17936 0.48927,-0.10246 0.91997,0.34552 0.55414,0.57635 0.55414,0.57635 2.98066,-1.75672 3.17851,-3.05611 3.89083,-2.17786 -9.83005,-12.12031 -10.21231,-7.40008 -10.21231,-7.40008 -13.14454,-10.44974 -1.86992,-1.94482 -3.48467,-3.47827 -4.45707,-4.23278 -3.79068,-2.94116 -8.47462,-8.43768 -8.16844,-9.58553 1.15524,-4.33113 11.06098,-13.30826 13.23016,-11.98985 0.18058,0.10976 0.55167,0.085 0.82465,-0.0548 1.81511,-0.93005 3.44809,0.21065 3.96463,2.76946 0.3645,1.80563 0.39715,1.87075 1.71817,3.42492 0.74061,0.87144 1.57548,1.94112 1.85521,2.37716 0.27975,0.43604 1.9396,2.28119 3.68864,4.10028 3.18007,3.30748 3.18007,3.30748 10.04584,13.84436 7.62221,11.69784 9.00433,13.52152 9.72358,12.82998 0.33934,-0.32628 0.33934,-0.32628 4.97228,4.49223 4.63292,4.8185 4.63292,4.8185 4.29358,5.14479 -0.53631,0.51565 2.88032,4.05752 3.75809,3.89572 1.42019,-0.26182 1.38329,-0.58623 -0.26144,-2.29684 -1.8078,-1.88018 -1.82679,-1.69046 0.38185,-3.81404 2.01596,-1.93832 2.1404,-1.98504 2.97516,-1.11688 0.62248,0.64742 0.65783,0.65172 1.18457,0.1453 0.45074,-0.43338 0.60662,-0.45585 0.91755,-0.13248 0.8,0.83206 2.32232,-0.71924 2.27396,-2.31717 -0.0597,-1.97444 -0.33913,-2.19103 6.94405,5.38386 7.19026,7.47828 6.94896,7.14924 5.22943,7.13002 -2.25783,-0.0252 -3.46542,1.22523 -2.32688,2.40939 0.67944,0.70665 0.2282,1.43035 -0.5436,0.87179 -0.93777,-0.67869 -0.73281,-0.0258 0.34325,1.09335 1.08935,1.13297 1.08935,1.13297 6.77392,2.28683 5.7767,1.17257 15.78992,9.18071 15.57364,12.45507 -0.054,0.81644 -0.054,0.81644 3.60535,4.63277 3.65901,3.81665 3.65901,3.81665 2.81947,4.36925 -4.64776,3.05999 -12.01516,2.8977 -15.13745,-0.33347 -1.56376,-1.619 -1.56376,-1.619 -2.05035,-1.15116 -0.56058,0.53898 1.0264,2.31595 3.2735,3.66538 1.50486,0.9037 3.34606,2.86096 4.29995,4.57095 1.09962,1.97122 2.6317,3.52548 3.06479,3.10909 0.45922,-0.44153 0.71992,-0.22332 6.20791,5.19663 2.95649,2.91987 5.49258,5.29115 6.48608,6.06466 1.71207,1.33298 5.62279,5.29297 6.8064,6.89213 0.65468,0.88452 0.65468,0.88452 -3.85825,5.32324 -5.00896,4.9266 -4.58035,4.6894 -5.9403,3.28737 -0.27407,-0.28321 -0.5559,-0.35336 -0.86478,-0.21657 -0.58536,0.25928 -1.6227,-0.74673 -1.93286,-1.87442 -0.13428,-0.48827 -0.50196,-1.06884 -1.02568,-1.61965 -0.44886,-0.47238 -1.40409,-1.65605 -2.12241,-2.63075 -0.71831,-0.97472 -3.21022,-3.8587 -5.5376,-6.40889 -5.4409,-5.96181 -5.9375,-6.5921 -5.5142,-6.99909 0.42842,-0.41192 -1.22926,-2.1885 -3.12011,-3.34383 -1.68727,-1.03095 -3.61263,-3.03613 -4.36514,-4.54553 -2.92253,-5.86531 -9.25046,-10.0836 -11.65642,-7.77029 -2.44332,2.34923 -2.44332,2.34923 -1.87603,2.93925 0.47903,0.49822 0.51445,0.64083 0.22795,0.91629 -0.32084,0.30849 -0.28261,0.38532 0.70068,1.408 0.98332,1.0227 1.05858,1.06389 1.37942,0.75542 0.47629,-0.45796 1.58252,0.6301 1.20264,1.18289 -0.22019,0.32033 -0.13956,0.46618 0.79504,1.43822 0.93461,0.97204 1.07717,1.0583 1.40591,0.85091 0.56728,-0.35789 1.61108,0.79018 1.13478,1.24815 -0.32085,0.30849 -0.28261,0.38529 0.7007,1.408 0.9833,1.0227 1.05856,1.06387 1.37939,0.75542 0.47631,-0.45799 1.58252,0.63009 1.20263,1.18288 -0.22018,0.32031 -0.13957,0.46617 0.79507,1.43824 0.93462,0.97203 1.07718,1.05828 1.40591,0.8509 0.56729,-0.3579 1.61107,0.79019 1.13478,1.24813 -0.32085,0.30848 -0.28263,0.38531 0.70068,1.40799 0.9833,1.02272 1.05859,1.06389 1.37942,0.75543 0.65281,-0.62766 0.80557,0.19671 0.65479,3.5338 -0.15195,3.36325 -0.15195,3.36325 51.34846,56.93191 57.49949,59.80817 52.92748,54.81609 52.9113,57.77788 -0.005,0.97968 -0.005,0.97968 2.56449,3.80766 5.1492,5.66642 7.24275,9.95533 6.09701,12.4905 -0.33988,0.75199 -0.63747,0.87911 -7.51424,3.2092 -10.03244,3.39939 -15.11532,7.82709 -18.03244,15.7079 -1.35207,3.65275 -7.38588,1.92582 -13.484,-3.85926 -2.20393,-2.09078 -2.20393,-2.09078 -2.70435,-1.72826 -0.50047,0.36248 -0.50047,0.36248 -1.62304,-0.80504 -0.99652,-1.03646 -1.15313,-1.13823 -1.39406,-0.90655 -0.38749,0.37255 0.19632,1.11418 -13.70758,-17.41277 -14.91962,-19.88037 -16.65886,-21.95015 -18.94126,-22.5412 -3.11552,-0.80677 -7.24113,-3.58376 -8.14155,-5.48008 -1.3144,-2.768 -0.77055,-3.62305 2.943,-4.62718 3.66477,-0.99098 3.3798,-0.44203 6.12371,-11.79635 2.25905,-9.34731 2.28628,-9.50383 1.76829,-10.16559 -1.21366,-1.55051 -35.8292,-38.00912 -36.30787,-38.24105 -2.19824,-1.06514 -17.73086,-4.31848 -17.31671,-3.62704 0.11948,0.19936 -0.16097,0.6211 -0.86266,1.29714 -1.25689,1.21204 -1.6817,2.08629 -1.58796,3.27361 0.16466,2.08504 -0.45979,32.0003 -0.67225,32.20457 -0.26291,0.25281 -0.12395,0.3271 -3.79405,-2.02941 -11.29828,-7.25459 -19.7288,-15.55901 -14.76993,-14.54899 1.515,0.30859 1.62918,-0.0191 2.39443,-6.86997 0.75217,-6.73388 0.7386,-6.84667 -1.04011,-8.62769 -1.49365,-1.4957 -1.53294,-1.86007 -0.17268,-1.60377 2.25246,0.42439 2.69391,-0.15026 3.07319,-4.00051 0.18495,-1.87771 0.14176,-2.52129 -0.2062,-3.07145 -0.24216,-0.38272 -0.53406,-0.90148 -0.64878,-1.15263 -0.33025,-0.72308 -0.70804,-1.01849 -1.09253,-0.8543 -0.4364,0.18635 -3.24818,-1.65004 -6.1172,-3.99525 -5.07137,-4.14542 -9.12196,-10.07554 -9.60617,-14.06361 -0.0746,-0.61368 -0.2829,-1.01213 -0.82322,-1.57407 -0.88937,-0.92501 -0.846,-0.96092 -2.20769,1.8269 -1.44888,2.96635 -1.5731,2.82302 -0.74894,-0.86423 0.92813,-4.15256 -0.18923,-6.20123 -2.28192,-4.18384 -1.66654,1.60589 -17.55181,16.04942 -17.63763,16.03613 -0.0666,-0.0108 -38.59452,-51.82871 -39.43703,-53.04094 -0.35475,-0.51053 -0.35475,-0.51053 7.77202,-8.32431 8.12683,-7.81384 8.12683,-7.81384 6.5163,-9.38791 -6.34355,-6.19982 -18.2547,-18.66316 -18.12203,-18.96217 0.076,-0.17099 0.51675,-0.78767 0.97974,-1.37025 0.84177,-1.05927 0.84177,-1.05927 -0.008,-2.10095 -1.03687,-1.27124 -1.97788,-3.08108 -2.37526,-4.56831 -0.2483,-0.92935 -0.46813,-1.28956 -1.34102,-2.19741 -2.86681,-2.98163 -3.53461,-6.28945 -1.63794,-8.11307 0.66703,-0.64135 0.78747,-0.97419 0.91856,-2.53906 0.083,-0.99052 0.32093,-1.96446 0.52872,-2.16434 0.62127,-0.59733 0.85427,-0.34101 -20.56268,-22.62017 -20.65724,-21.48839 -20.65724,-21.48839 -23.03247,-19.20463 -2.02102,1.94319 -2.41776,2.23999 -2.65911,1.98897 -0.47581,-0.49488 0.0924,-1.30552 -12.99819,18.54064 -6.09374,9.23844 -5.54409,7.99535 -4.21232,9.52646 1.56275,1.79665 1.54004,1.92678 -0.45334,2.59822 -2.39984,0.80832 -1.94094,1.10917 -8.13581,-5.33385 -6.60566,-6.87026 -6.78896,-7.426 -2.67725,-8.11785 0.65353,-0.11001 0.93993,-0.49573 4.00861,-5.39926 1.81764,-2.90445 3.33725,-5.31205 3.37696,-5.35024 0.0396,-0.0381 -0.0554,-0.20215 -0.21143,-0.36442 -0.15601,-0.16226 -0.37254,-0.20959 -0.48106,-0.10525 -0.10861,0.10439 -7.52258,5.44478 -16.47554,11.86748 -8.95295,6.42272 -16.33324,11.73044 -16.40067,11.79488 -0.0698,0.0669 -0.9384,-0.80047 -2.02651,-2.02444 -2.09624,-2.35796 -2.63581,-2.57879 -2.94525,-1.2051 -0.13458,0.59752 -0.0844,0.6769 2.4771,3.92295 2.59557,3.28919 2.61543,3.23262 -1.07754,3.07105 -4.22552,-0.18488 -4.01041,-0.0381 -10.64054,-7.26145 z m 196.24641,129.43714 c 4.16511,3.02911 4.36149,3.01412 7.96993,-0.60883 3.44519,-3.45891 3.43946,-3.31055 0.24895,-6.62886 -2.07315,-2.15619 -2.07315,-2.15619 -2.30102,-1.64604 -0.70367,1.57553 -2.83329,2.58452 -5.44694,2.58062 -1.60743,-0.002 -4.95047,-0.55714 -5.25289,-0.87167 -0.3813,-0.39656 0.15702,-0.55171 1.13787,-0.32794 3.20197,0.73105 5.84679,-0.9768 6.88031,-4.44175 0.2623,-0.87951 -6.11134,-7.53573 -7.31377,-7.63795 -1.66102,-0.14122 -5.86669,4.52572 -5.56106,6.17103 0.88549,4.76663 4.31696,9.5413 9.63856,13.41143 z m 112.01067,110.31445 c 0.99257,0.24992 11.26475,-9.77903 10.74689,-10.49255 -0.58595,-0.80736 -37.56348,-39.86277 -37.78459,-39.90782 -0.2223,-0.0453 -0.3323,0.2998 -2.02603,6.35836 -1.57242,5.62441 -2.21526,4.00677 5.71708,14.38653 3.66708,4.79853 9.92231,13.004 13.90053,18.23439 7.86783,10.34437 8.57736,11.20226 9.44608,11.42104 z M 259.12624,270.89075 c 1.89503,-1.60021 3.93488,-0.83651 4.46373,1.67121 0.59157,2.80508 2.78954,4.95144 5.13767,5.01704 0.90849,0.0253 2.17099,1.56493 2.29412,2.79755 0.43365,4.34016 1.79859,3.65453 2.44442,-1.22788 0.63627,-4.81001 1.09697,-4.03147 -8.09987,-13.68813 -3.77091,-3.95963 -4.76947,-4.14644 -5.16683,-0.96714 -0.20447,1.63587 -1.09569,2.64928 -2.48309,2.82342 -1.70389,0.21388 -1.79058,1.95077 -0.17417,3.49016 0.79108,0.75335 0.79108,0.75335 1.58402,0.0838 z m 73.48277,33.83872 c 0.5673,-0.3579 1.6111,0.79018 1.13478,1.24814 -0.32083,0.30849 -0.28261,0.38531 0.7007,1.40801 0.99018,1.02985 1.05674,1.06565 1.38801,0.74715 0.48446,-0.46581 1.63817,0.81291 1.24706,1.38211 -0.39734,0.57816 1.65125,2.64402 2.14816,2.16626 0.28655,-0.27553 0.42756,-0.23451 0.90663,0.26374 0.47905,0.49822 0.51456,0.64072 0.22796,0.91629 -0.32085,0.30849 -0.2826,0.3853 0.70068,1.40798 0.98332,1.02271 1.05859,1.0639 1.37941,0.75544 0.29733,-0.28588 0.42127,-0.24109 1.00119,0.36206 0.57991,0.60316 0.6198,0.7288 0.32249,1.01465 -0.32083,0.30849 -0.28261,0.38531 0.70069,1.40799 0.98332,1.0227 1.0586,1.06387 1.37941,0.75542 0.21115,-0.20303 0.44652,-0.21483 0.62299,-0.0312 0.24174,0.25141 0.64796,-0.0553 2.74807,-2.07448 2.46441,-2.36951 2.46441,-2.36951 -0.44435,-5.15549 -3.60671,-3.45448 -7.14323,-7.13505 -10.86954,-11.31231 -2.86251,-3.20893 -2.86251,-3.20893 -5.32688,-0.83948 -2.10005,2.01918 -2.42252,2.413 -2.18072,2.66448 0.15599,0.16227 0.17166,0.40269 0.0348,0.53429 -0.56886,0.54695 1.5005,2.80673 2.17855,2.37894 z"
     id="path222" />
</svg>
