<?xml version="1.0" encoding="UTF-8" standalone="no"?>
<!-- Created with Inkscape (http://www.inkscape.org/) -->

<svg
   version="1.1"
   id="svg334"
   width="512"
   height="512"
   viewBox="0 0 512 512"
   sodipodi:docname="stun taser.svg"
   inkscape:version="1.2.1 (9c6d41e410, 2022-07-14)"
   xmlns:inkscape="http://www.inkscape.org/namespaces/inkscape"
   xmlns:sodipodi="http://sodipodi.sourceforge.net/DTD/sodipodi-0.dtd"
   xmlns="http://www.w3.org/2000/svg"
   xmlns:svg="http://www.w3.org/2000/svg">
  <defs
     id="defs338" />
  <sodipodi:namedview
     id="namedview336"
     pagecolor="#ffffff"
     bordercolor="#000000"
     borderopacity="0.25"
     inkscape:showpageshadow="2"
     inkscape:pageopacity="0.0"
     inkscape:pagecheckerboard="0"
     inkscape:deskcolor="#d1d1d1"
     showgrid="false"
     inkscape:zoom="1.0253906"
     inkscape:cx="246.73524"
     inkscape:cy="256.48762"
     inkscape:window-width="1366"
     inkscape:window-height="705"
     inkscape:window-x="-8"
     inkscape:window-y="-8"
     inkscape:window-maximized="1"
     inkscape:current-layer="g340" />
  <g
     inkscape:groupmode="layer"
     inkscape:label="Image"
     id="g340">
    <path
       style="fill:#ffffff"
       d="m 189.20884,489.26119 c -17.54443,-8.74276 -19.09279,-39.28597 -2.85175,-56.25395 10.29348,-10.7542 11.21926,-15.38102 5.10611,-25.51906 -6.07612,-10.07664 -5.8645,-13.67159 1.49159,-25.33922 4.86204,-7.71176 4.62048,-13.09353 -0.98615,-21.971 -6.73826,-10.66928 -6.61298,-13.97588 0.98615,-26.029 4.95639,-7.8614 4.66144,-13.31466 -1.1966,-22.12434 -24.83815,-37.35312 -14.91071,-44.1805 64.24123,-44.1805 72,0 72,0 72,16 0,16 0,16 -28,16 -28,0 -28,0 -28,8 0,8 0,8 28,8 28,0 28,0 28,12 0,12 0,12 -28,12 -28,0 -28,0 -28,8 0,8 0,8 28,8 28,0 28,0 28,12 0,12 0,12 -28,12 -28,0 -28,0 -28,8 0,8 0,8 28,8 28,0 28,0 28,8.875 0,4.88125 0.28125,10.28125 0.625,12 0.625,3.125 0.625,3.125 -28,3.125 -28.625,0 -28.625,0 -28.625,7.9867 0,7.9867 0,7.9867 33.6523,8.25 40.54629,0.31724 37.8477,-1.3827 37.8477,23.84172 0,18.35044 -1.65811,22.65124 -10.94731,28.39514 -7.27297,4.49718 -134.53107,5.33481 -143.34327,0.94351 z M 174.24942,235.9384 c -7.08612,-18.03064 -10.22609,-135.2091 -3.79545,-141.639738 16.42639,-16.426396 37.54545,-1.316822 37.54545,26.861798 0,54.55033 12.59998,73.96651 48,73.96651 35.40002,0 48,-19.41618 48,-73.96651 0,-28.17862 21.11906,-43.288194 37.54545,-26.861798 6.43423,6.434228 3.28914,123.913198 -3.79545,141.772058 -9.87621,24.89598 -153.70952,24.77957 -163.5,-0.13232 z M 251.72551,90.750639 c -0.97565,-0.567964 -4.4877,-6.446336 -7.80456,-13.06305 -6.03065,-12.03039 -6.03065,-12.03039 -11.41623,-6.936931 -9.99398,9.451895 -24.5053,7.730728 -24.5053,-2.906541 0,-8 0,-8 6.18173,-8 6.18173,0 6.18173,0 14.37781,-8 11.62349,-11.345399 15.13619,-11.033702 21.39156,1.898159 4.09486,8.465399 3.50762,9.220493 9.64213,-12.398159 5.17512,-18.237666 7.01702,-21.5 12.13881,-21.5 5.1425,0 6.60424,2.198982 14.23256,21.410854 7.38107,18.589146 7.38107,18.589146 12.70823,18.589146 5.32717,0 5.32717,0 5.32717,8 0,15.532976 -20.34369,11.723804 -27.02387,-5.059977 -4.22214,-10.608 -2.96658,-12.348277 -10.86533,15.059977 -3.78202,13.123421 -7.80759,16.73532 -14.38471,12.906522 z"
       id="path344" />
  </g>
</svg>
