<?xml version="1.0" encoding="UTF-8" standalone="no"?>
<!-- Created with Inkscape (http://www.inkscape.org/) -->

<svg
   version="1.1"
   id="svg317"
   width="512"
   height="512"
   viewBox="0 0 512 512"
   sodipodi:docname="stun pistol.svg"
   inkscape:version="1.2.1 (9c6d41e410, 2022-07-14)"
   xmlns:inkscape="http://www.inkscape.org/namespaces/inkscape"
   xmlns:sodipodi="http://sodipodi.sourceforge.net/DTD/sodipodi-0.dtd"
   xmlns="http://www.w3.org/2000/svg"
   xmlns:svg="http://www.w3.org/2000/svg">
  <defs
     id="defs321" />
  <sodipodi:namedview
     id="namedview319"
     pagecolor="#ffffff"
     bordercolor="#000000"
     borderopacity="0.25"
     inkscape:showpageshadow="2"
     inkscape:pageopacity="0.0"
     inkscape:pagecheckerboard="0"
     inkscape:deskcolor="#d1d1d1"
     showgrid="false"
     inkscape:zoom="1.0253906"
     inkscape:cx="246.73524"
     inkscape:cy="256.48762"
     inkscape:window-width="1366"
     inkscape:window-height="705"
     inkscape:window-x="-8"
     inkscape:window-y="-8"
     inkscape:window-maximized="1"
     inkscape:current-layer="g323" />
  <g
     inkscape:groupmode="layer"
     inkscape:label="Image"
     id="g323">
    <path
       style="fill:#ffffff"
       d="m 63.678985,397.74814 c -3.025,-0.49955 -5.65,-1.34694 -5.83333,-1.88309 -0.18333,-0.53615 -0.832173,-0.97482 -1.441867,-0.97482 -1.922601,0 -8.8059,-8.1555 -9.402975,-11.14088 -0.314503,-1.57252 -0.965574,-2.85912 -1.446824,-2.85912 -0.48125,0 -0.875,-3.825 -0.875,-8.5 0,-4.675 0.39375,-8.5 0.875,-8.5 0.48125,0 1.134152,-1.29576 1.450893,-2.87946 0.316741,-1.58371 1.218126,-3.5217 2.003078,-4.30665 0.784951,-0.78496 1.742804,-2.8642 2.128562,-4.62054 0.385758,-1.75634 1.043596,-3.19335 1.461863,-3.19335 0.418267,0 1.375522,-1.9125 2.127234,-4.25 0.751713,-2.3375 1.948739,-4.60986 2.660056,-5.04969 0.71132,-0.43983 1.29331,-1.67733 1.29331,-2.75 0,-1.07267 0.39152,-1.95031 0.87004,-1.95031 0.47852,0 1.43701,-2.025 2.12996,-4.5 0.69296,-2.475 1.64287,-4.5 2.11091,-4.5 0.46805,0 1.13335,-1.125 1.47845,-2.5 0.3451,-1.375 1.02868,-2.5 1.51905,-2.5 0.49038,0 0.89159,-0.55604 0.89159,-1.23565 0,-1.57091 5.25018,-12.15332 6.25,-12.59768 0.4125,-0.18334 0.75,-0.85188 0.75,-1.48565 0,-1.51038 5.28047,-12.08345 6.25,-12.51435 0.4125,-0.18334 0.75,-0.85188 0.75,-1.48565 0,-1.25959 5.10147,-11.87357 6.09497,-12.68102 0.33836,-0.275 1.16531,-2.1875 1.83767,-4.25 0.67236,-2.0625 1.63225,-3.75 2.13309,-3.75 0.50085,0 1.19847,-1.8 1.55026,-4 0.35179,-2.2 0.96971,-4 1.37315,-4 0.40343,0 0.52854,-1.07225 0.27802,-2.38278 -0.25053,-1.31053 0.0369,-2.68709 0.63867,-3.05902 1.33026,-0.82215 1.43179,-4.94378 0.18036,-7.32177 -0.50259,-0.95504 -1.43487,-4.32393 -2.07172,-7.48643 -0.63684,-3.1625 -1.56706,-5.75 -2.06713,-5.75 -0.50008,0 -1.17628,-1.06399 -1.50267,-2.36443 -0.61384,-2.44572 -7.515,-9.63557 -9.24869,-9.63557 -0.5401,0 -1.22474,-0.63257 -1.52142,-1.4057 -0.29668,-0.77314 -1.91983,-1.7089 -3.60699,-2.07946 -1.68716,-0.37056 -3.06757,-1.0531 -3.06757,-1.51674 0,-0.46365 -1.60975,-1.37426 -3.57723,-2.02359 -5.07294,-1.67422 -18.422766,-15.51086 -18.422766,-19.09457 0,-0.9423 -0.489064,-1.87629 -1.086808,-2.07554 -3.294968,-1.09833 -3.404425,-31.6467 -0.120665,-33.67617 0.576898,-0.35655 1.358366,-1.88126 1.736597,-3.38825 0.378231,-1.50699 1.070845,-2.73998 1.539143,-2.73998 0.468297,0 1.390743,-1.8 2.049879,-4 0.659136,-2.2 1.5772,-4 2.040142,-4 0.462938,0 0.841708,-0.65264 0.841708,-1.45031 0,-0.79767 0.61136,-1.81017 1.35856,-2.25 0.74721,-0.43983 1.90711,-2.48719 2.57756,-4.54969 0.67044,-2.0625 1.63409,-3.75 2.14144,-3.75 0.50734,0 0.92244,-0.58347 0.92244,-1.29661 0,-2.35273 10.11505,-13.76609 13.27468,-14.97855 0.94893,-0.36414 1.72532,-1.09044 1.72532,-1.614 0,-0.52356 1.35,-1.24844 3,-1.61084 1.65,-0.3624 3,-1.12564 3,-1.69609 0,-0.57044 0.87842,-0.80746 1.95205,-0.5267 1.07363,0.28076 2.12358,-0.004 2.33323,-0.63337 0.53157,-1.59513 329.214745,-2.22102 335.586775,-0.63903 7.67208,1.90475 12.108,8.58119 12.12237,18.24519 0.006,3.75 0.006,3.75 10.75558,3.7818 10.6277,0.0314 14.25,1.00462 14.25,3.82844 0,0.62687 0.45,1.13976 1,1.13976 0.60032,0 1,4.01592 1,10.04775 0,14.05197 -0.97216,14.95225 -16.14602,14.95225 -10.85398,0 -10.85398,0 -10.85398,13 0,13 0,13 11.13365,13 24.59965,0 24.71598,29.10151 0.11927,29.83605 -11.25292,0.33606 -11.25292,0.33606 -11.27678,3.5 -0.0878,11.64811 -4.96188,17.00314 -15.88796,17.4558 -4.1735,0.17291 -8.49577,0.76037 -9.60506,1.30548 -1.27157,0.62486 -19.19399,0.88238 -48.5,0.69689 -51.62564,-0.32677 -48.97587,-0.6567 -50.50118,6.288 -0.35247,1.60478 -1.0347,2.91778 -1.51608,2.91778 -0.48138,0 -1.16486,1.54383 -1.51884,3.43073 -0.35399,1.8869 -1.27438,3.67278 -2.04532,3.96862 -0.77093,0.29583 -1.4017,1.64486 -1.4017,2.99784 0,1.35297 -0.65278,3.11274 -1.45063,3.91058 -0.79785,0.79785 -1.74663,2.62999 -2.10841,4.07143 -0.36178,1.44144 -0.94914,2.6208 -1.30526,2.6208 -0.35611,0 -1.26268,1.38983 -2.01459,3.08852 -1.37955,3.11661 -13.91835,16.37366 -17.62111,18.63047 -1.1,0.67044 -3.2375,1.72697 -4.75,2.34782 -1.5125,0.62086 -2.75,1.49906 -2.75,1.95156 0,0.4525 -1.4625,1.13544 -3.25,1.51765 -1.7875,0.38221 -3.79279,1.1317 -4.4562,1.66554 -0.6634,0.53384 -1.63747,0.70408 -2.16458,0.3783 -0.52712,-0.32578 -1.14677,-0.027 -1.377,0.66391 -0.32111,0.96366 -7.90898,1.33855 -32.58049,1.60969 -17.68903,0.1944 -31.93176,0.72581 -31.65049,1.1809 0.28126,0.45509 0.10506,1.07857 -0.39157,1.3855 -0.49662,0.30693 -1.19935,2.13802 -1.56162,4.06909 -0.36227,1.93108 -1.06789,3.51105 -1.56805,3.51105 -0.50016,0 -1.20485,1.575 -1.56598,3.5 -0.36113,1.925 -1.05652,3.5 -1.54531,3.5 -0.48879,0 -0.83001,0.3375 -0.75827,0.75 0.20727,1.19178 -2.49878,7.25 -3.23839,7.25 -0.36821,0 -0.96494,1.575 -1.32607,3.5 -0.36113,1.925 -1.07209,3.5 -1.57991,3.5 -0.50781,0 -0.66428,0.675 -0.3477,1.5 0.31659,0.825 0.12754,1.5 -0.42009,1.5 -0.54763,0 -1.29117,1.575 -1.6523,3.5 -0.36113,1.925 -1.06582,3.5 -1.56598,3.5 -0.50016,0 -1.20485,1.575 -1.56598,3.5 -0.36113,1.925 -1.05652,3.5 -1.54531,3.5 -0.48879,0 -0.81604,0.3375 -0.72723,0.75 0.0888,0.4125 -0.36118,2.01679 -1,3.5651 -0.63881,1.5483 -1.16148,3.4608 -1.16148,4.25 0,0.78919 -0.43194,1.4349 -0.95986,1.4349 -0.52792,0 -1.49915,1.8 -2.15829,4 -0.65913,2.2 -1.52711,4 -1.92885,4 -0.40173,0 -1.02589,1.575 -1.38702,3.5 -0.36113,1.925 -1.05046,3.5 -1.53184,3.5 -0.48138,0 -1.17191,1.3508 -1.53453,3.00177 -0.70099,3.19161 -7.30769,10.99823 -9.30774,10.99823 -0.65553,0 -1.19187,0.40381 -1.19187,0.89735 0,2.89195 -76.489555,4.52199 -92.000005,1.96056 z m 61.710255,-10.85791 c 0.28766,-1.1 0.87045,-2 1.29509,-2 0.42464,0 1.06755,-1.575 1.42868,-3.5 0.36113,-1.925 1.07209,-3.5 1.57991,-3.5 0.50781,0 0.66428,-0.675 0.3477,-1.5 -0.31659,-0.825 -0.12754,-1.5 0.42009,-1.5 0.54763,0 1.29117,-1.575 1.6523,-3.5 0.36113,-1.925 1.01419,-3.5 1.45123,-3.5 0.43705,0 1.40198,-1.9125 2.14429,-4.25 0.74231,-2.3375 1.93934,-5.13763 2.66006,-6.22251 0.72072,-1.08487 1.3104,-2.99737 1.3104,-4.25 0,-1.25262 0.43194,-2.27749 0.95986,-2.27749 0.52792,0 1.49915,-1.8 2.15829,-4 0.65913,-2.2 1.5568,-4 1.99482,-4 0.43802,0 1.09188,-1.575 1.45301,-3.5 0.36113,-1.925 0.96612,-3.5 1.34442,-3.5 0.84998,0 3.0896,-6.03181 3.0896,-8.321 0,-0.92345 0.44143,-1.679 0.98095,-1.679 0.53952,0 1.2633,-1.125 1.60841,-2.5 0.3451,-1.375 0.98379,-2.5 1.41931,-2.5 0.43552,0 1.33162,-2.25 1.99133,-5 0.65971,-2.75 1.58421,-5 2.05443,-5 0.47022,0 1.15042,-1.575 1.51155,-3.5 0.36113,-1.925 0.98529,-3.5 1.38702,-3.5 0.40174,0 1.26972,-1.8 1.92885,-4 0.65914,-2.2 1.63037,-4 2.15829,-4 0.52792,0 0.95986,-0.79416 0.95986,-1.76481 0,-0.97064 0.91127,-3.46503 2.02504,-5.54309 1.11377,-2.07805 2.29993,-5.78389 2.63592,-8.23519 0.33599,-2.4513 0.99972,-4.45691 1.47496,-4.45691 0.47525,0 0.86408,-4.05 0.86408,-9 0,-4.95 -0.34351,-9 -0.76335,-9 -0.41984,0 -1.31796,-2.33478 -1.99582,-5.1884 -0.67785,-2.85362 -1.581,-5.44112 -2.007,-5.75 -0.426,-0.30888 -1.3457,-1.6866 -2.04378,-3.0616 -2.86637,-5.64584 -7.1476,-11 -8.79569,-11 -0.33311,0 -1.94263,-1.125 -3.57673,-2.5 -1.63409,-1.375 -3.61155,-2.5 -4.39436,-2.5 -0.7828,0 -1.42327,-0.41425 -1.42327,-0.92054 0,-0.5063 -1.35,-1.21706 -3,-1.57946 -1.65,-0.3624 -3,-1.01075 -3,-1.44078 0,-0.43003 -1.125,-0.56682 -2.5,-0.30397 -1.45935,0.27897 -2.5,0.0131 -2.5,-0.63867 0,-3.00665 -13.11187,-1.28045 -14.3061,1.88342 -0.62281,1.65 -1.43364,3 -1.80185,3 -0.36821,0 -0.96494,1.575 -1.32607,3.5 -0.36113,1.925 -1.08794,3.5 -1.61513,3.5 -0.52719,0 -1.50013,2.025 -2.16209,4.5 -0.66196,2.475 -1.52448,4.5 -1.91671,4.5 -0.39223,0 -1.00965,1.35 -1.37205,3 -0.3624,1.65 -1.09971,3 -1.63847,3 -0.53876,0 -0.73039,0.40316 -0.42585,0.89592 0.30454,0.49276 -0.11613,2.18026 -0.93483,3.75 -0.81869,1.56974 -1.4913,3.64158 -1.49469,4.60408 -0.003,0.9625 -0.42041,1.75 -0.9267,1.75 -0.5063,0 -1.21706,1.35 -1.57946,3 -0.3624,1.65 -1.09971,3 -1.63847,3 -0.53876,0 -0.70145,0.45 -0.36153,1 0.33992,0.55 0.14148,1 -0.44098,1 -0.58246,0 -1.05902,1.09286 -1.05902,2.42857 0,1.33572 -0.65278,3.08136 -1.45063,3.8792 -0.79785,0.79785 -1.746635,2.62999 -2.108415,4.07143 -0.36178,1.44144 -1.05899,2.6208 -1.54937,2.6208 -0.49037,0 -0.82721,0.3375 -0.74852,0.75 0.25689,1.34673 -2.31729,7.25 -3.16144,7.25 -0.4525,0 -1.11923,1.35 -1.48163,3 -0.3624,1.65 -1.07316,3 -1.57946,3 -0.50629,0 -0.85616,0.3375 -0.77747,0.75 0.25689,1.34673 -2.31729,7.25 -3.16144,7.25 -0.4525,0 -1.11923,1.35 -1.48163,3 -0.3624,1.65 -1.07316,3 -1.57946,3 -0.50629,0 -0.86184,0.3375 -0.7901,0.75 0.2244,1.29031 -2.52912,7.25 -3.34968,7.25 -0.42942,0 -0.78076,0.55604 -0.78076,1.23565 0,1.57091 -5.25017,12.15332 -6.25,12.59768 -0.4125,0.18334 -0.75,0.85188 -0.75,1.48565 0,1.51038 -5.28047,12.08345 -6.25,12.51435 -0.4125,0.18334 -0.75,0.85188 -0.75,1.48565 0,1.33582 -5.14671,11.93186 -6.16587,12.6943 -0.37737,0.2823 -1.22284,2.6448 -1.878836,5.25 -0.655996,2.6052 -1.589298,4.73672 -2.074005,4.73672 -0.484707,0 -0.881285,1.125 -0.881285,2.5 0,1.375 0.39375,2.5 0.875,2.5 0.48125,0 1.154438,1.39719 1.495974,3.10487 0.665552,3.32776 4.326982,7.84949 6.379022,7.87785 0.6875,0.01 1.25,0.43598 1.25,0.94773 0,2.92057 60.946735,2.98926 61.710255,0.0695 z m 132.68481,-116.25 c 0.96129,-0.9625 2.39506,-1.75 3.18616,-1.75 0.79109,0 2.20896,-0.9 3.15081,-2 0.94185,-1.1 2.28744,-2 2.99021,-2 0.70277,0 1.27776,-0.65264 1.27776,-1.45031 0,-0.79767 0.71532,-1.85062 1.5896,-2.33989 0.87428,-0.48928 1.51764,-1.07414 1.4297,-1.29969 -0.0879,-0.22556 0.32174,-1.6769 0.9104,-3.22521 0.58867,-1.5483 1.0703,-3.2358 1.0703,-3.75 0,-0.51419 0.44143,-0.9349 0.98095,-0.9349 0.53952,0 1.2633,-1.125 1.60841,-2.5 0.3451,-1.375 1.01455,-2.5 1.48766,-2.5 0.47312,0 0.64414,-0.5625 0.38006,-1.25 -1.49901,-3.90249 -51.47972,-1.38231 -52.56528,2.6505 -0.57746,2.14527 -1.68936,4.53991 -2.47087,5.32143 -0.78151,0.78151 -1.42093,2.06378 -1.42093,2.8495 0,0.78571 -0.36493,1.42857 -0.81095,1.42857 -0.44602,0 -1.38761,2.25 -2.09241,5 -0.70481,2.75 -1.63742,5 -2.07247,5 -0.43506,0 -1.01081,1.14977 -1.27944,2.55505 -0.63991,3.34743 39.3194,3.53008 42.65033,0.19495 z M 390.0972,233.28324 c 1.4158,-0.54329 1.58179,-6.36724 1.58179,-55.5 0,-54.89301 0,-54.89301 -123.02475,-54.89301 -123.02475,0 -123.02475,0 -124,2.5651 -2.06867,5.44102 -0.39633,22.4349 2.20779,22.4349 0.47655,0 1.29419,1.125 1.81696,2.5 0.52277,1.375 1.63664,2.5 2.47525,2.5 0.83861,0 1.52475,0.39541 1.52475,0.87868 0,0.48327 1.4625,1.47023 3.25,2.19323 1.7875,0.723 3.57092,1.79009 3.96316,2.37132 0.48717,0.72191 24.015,1.14766 74.25,1.34359 40.44526,0.15776 73.53684,0.67017 73.53684,1.13871 0,0.46854 1.48864,1.13116 3.30808,1.47249 1.81945,0.34133 4.32598,1.40391 5.57009,2.36129 5.49112,4.22562 11.09872,10.30042 11.69266,12.66686 0.35529,1.41561 1.0317,2.57383 1.50314,2.57383 0.47143,0 1.15562,2.25 1.52042,5 0.3648,2.75 1.0553,5 1.53444,5 0.47914,0 0.87117,2.475 0.87117,5.5 0,3.025 -0.45,5.5 -1,5.5 -0.55,0 -1,1.24987 -1,2.77749 0,1.52763 -0.58968,3.66513 -1.3104,4.75 -0.72072,1.08488 -1.92678,3.99751 -2.68013,6.47251 -0.75335,2.475 -1.67662,4.95 -2.05171,5.5 -0.37509,0.55 -1.00471,2.34549 -1.39916,3.98998 -0.39444,1.64449 -1.0622,3.21949 -1.48391,3.5 -7.46155,4.96322 55.35589,10.00312 67.34352,5.40303 z"
       id="path327" />
  </g>
</svg>
