<?xml version="1.0" encoding="UTF-8" standalone="no"?>
<!-- Created with Inkscape (http://www.inkscape.org/) -->

<svg
   version="1.1"
   id="svg351"
   width="512"
   height="512"
   viewBox="0 0 512 512"
   sodipodi:docname="stun prod.svg"
   inkscape:version="1.2.1 (9c6d41e410, 2022-07-14)"
   xmlns:inkscape="http://www.inkscape.org/namespaces/inkscape"
   xmlns:sodipodi="http://sodipodi.sourceforge.net/DTD/sodipodi-0.dtd"
   xmlns="http://www.w3.org/2000/svg"
   xmlns:svg="http://www.w3.org/2000/svg">
  <defs
     id="defs355" />
  <sodipodi:namedview
     id="namedview353"
     pagecolor="#ffffff"
     bordercolor="#000000"
     borderopacity="0.25"
     inkscape:showpageshadow="2"
     inkscape:pageopacity="0.0"
     inkscape:pagecheckerboard="0"
     inkscape:deskcolor="#d1d1d1"
     showgrid="false"
     inkscape:zoom="1.0253906"
     inkscape:cx="246.73524"
     inkscape:cy="256.48762"
     inkscape:window-width="1366"
     inkscape:window-height="705"
     inkscape:window-x="-8"
     inkscape:window-y="-8"
     inkscape:window-maximized="1"
     inkscape:current-layer="g357" />
  <g
     inkscape:groupmode="layer"
     inkscape:label="Image"
     id="g357">
    <path
       style="fill:#ffffff"
       d="m 461.98111,477.84148 c -2.475,-0.35756 -5.46988,-1.05555 -6.65529,-1.5511 -1.96398,-0.82101 -18.73407,-16.10563 -54.01298,-49.2286 -7.24255,-6.79995 -13.63181,-13.55803 -14.19835,-15.01796 -1.21088,-3.1203 -4.70565,-20.70781 -6.06432,-30.51879 -0.75192,-5.42955 -1.4333,-7.19103 -3.25984,-8.42718 -4.74521,-3.21143 -10.14721,-9.74392 -12.9259,-15.63096 -2.52394,-5.34731 -4.82183,-7.78749 -19.12595,-20.31032 -12.19316,-10.67473 -16.92857,-14.23712 -18.94227,-14.25 -5.0085,-0.032 -7.70166,-1.79763 -9.91082,-6.49741 -2.66662,-5.67299 -3.15054,-5.96089 -6.82525,-4.06063 -3.7222,1.92483 -8.34673,1.97092 -11.92816,0.11889 -4.10434,-2.12244 -13.15087,-18.89487 -13.15087,-24.38196 0,-3.5531 -0.91379,-5.41728 -6.0531,-12.34867 -5.93367,-8.00273 -9.9469,-15.03443 -9.9469,-17.42823 0,-0.66285 -0.69382,-1.47143 -1.54183,-1.79684 -0.848,-0.32541 -2.1162,-1.9577 -2.81823,-3.62732 -0.79965,-1.90182 -7.41382,-8.13737 -17.70817,-16.6945 -9.03747,-7.51235 -20.51127,-17.0657 -25.49732,-21.22966 C 216.4295,210.79628 204.11227,200.6394 194.04393,192.3894 160.87371,165.20971 129.98505,139.68449 105.70497,119.38939 77.175395,95.542267 71.175729,90.889394 68.955537,90.889394 c -1.582762,0 -4.248564,-1.795409 -12.284359,-8.273473 C 54.04096,80.495568 50.857336,79.390192 43.151912,77.921938 37.608529,76.865657 31.951567,75.41372 30.580885,74.695411 29.210202,73.977101 23.84324,69.469907 18.654302,64.679423 c -6.501668,-6.002411 -9.5830058,-9.577273 -9.9123778,-11.5 -0.26287,-1.534516 -0.8289,-3.614446 -1.257844,-4.622067 -0.716811,-1.683839 -0.384456,-1.773029 4.1085698,-1.102572 3.567995,0.532422 7.257255,2.320849 13.657841,6.620856 4.823153,3.240264 9.469425,6.160026 10.325047,6.488359 1.559435,0.598411 11.405582,-3.437508 11.405582,-4.675129 0,-0.362257 -2.475,-3.393613 -5.5,-6.736347 -3.025,-3.342733 -5.5,-6.992861 -5.5,-8.111396 0,-1.118534 -0.45,-2.311814 -1,-2.651733 -1.479597,-0.914441 -1.214,-4.5 0.333333,-4.5 0.733334,0 1.630793,0.297459 1.994355,0.661021 0.363561,0.363561 1.901061,0.712767 3.416666,0.776012 3.551081,0.148185 20.428645,12.503412 22.237199,16.278751 0.73357,1.531319 1.392355,5.411151 1.463968,8.621849 l 0.130204,5.837632 6.712138,6.234843 c 3.691675,3.429164 6.712137,6.996343 6.712137,7.927066 0,0.930722 1.259686,2.473109 2.799302,3.427524 3.118874,1.933406 43.052678,33.960418 53.200688,42.667088 3.575,3.06724 15.275,12.66064 26,21.31867 10.725,8.65803 21.3,17.39459 23.5,19.41457 3.77421,3.46538 7.46029,6.49276 15.43162,12.67399 1.88739,1.46354 8.7909,7.16099 15.34113,12.66099 28.69056,24.09046 57.37674,46.6799 59.92594,47.18974 1.51605,0.30321 3.27165,1.17206 3.90133,1.93077 0.62968,0.75872 2.14432,1.37949 3.36587,1.37949 2.96106,0 11.42374,2.96439 20.70631,7.2532 6.29417,2.90808 8.67224,3.48809 14.09226,3.4371 9.91443,-0.0933 15.72376,5.05443 15.7318,13.94008 0.004,4.65628 0.19324,4.84854 23.50374,23.9058 17.54839,14.3465 18.23844,14.91741 51.66151,42.74201 l 30.6615,25.52561 3.04719,-4.9019 c 3.00075,-4.82719 5.06899,-5.85988 8.00792,-3.99839 0.75796,0.48009 1.04667,1.40916 0.64159,2.0646 -0.431,0.69737 0.13808,1.80433 1.37188,2.66851 3.17491,2.22379 2.56489,4.08516 -2.14159,6.53467 l -4.25,2.21194 6.68435,1.13205 c 3.98518,0.67493 8.28037,2.18825 10.63682,3.74768 2.17386,1.43859 5.57841,3.29498 7.56565,4.12531 3.96046,1.65478 4.15565,2.34654 2.20428,7.81184 -1.31493,3.68278 -1.30563,3.70747 1.9858,5.26936 1.8188,0.86308 5.47056,1.96716 8.11501,2.45351 4.23273,0.77845 5.61583,1.75511 11.55809,8.16153 6.01869,6.48883 6.75187,7.71812 6.76728,11.34638 0.0128,3.01948 0.65769,4.67657 2.5,6.42407 3.8107,3.6146 2.75873,12.86761 -2.06946,18.2027 -1.30305,1.43986 -1.28555,2.08646 0.14943,5.52086 l 1.62535,3.88999 -3.47229,3.01575 c -1.90976,1.65866 -3.82559,4.14074 -4.25739,5.51574 -1.98533,6.32191 -10.38976,16.55173 -18.47327,22.48557 -6.08438,4.46635 -8.56044,5.25519 -14.01965,4.46651 z"
       id="path361" />
  </g>
</svg>
