<?xml version="1.0" encoding="UTF-8" standalone="no"?>
<svg
   viewBox="0 0 512 512"
   style="height: 512px; width: 512px;"
   version="1.1"
   id="svg6"
   sodipodi:docname="bomb-suit.svg"
   inkscape:version="1.2.1 (9c6d41e410, 2022-07-14)"
   xml:space="preserve"
   xmlns:inkscape="http://www.inkscape.org/namespaces/inkscape"
   xmlns:sodipodi="http://sodipodi.sourceforge.net/DTD/sodipodi-0.dtd"
   xmlns="http://www.w3.org/2000/svg"
   xmlns:svg="http://www.w3.org/2000/svg"><defs
     id="defs10" /><sodipodi:namedview
     id="namedview8"
     pagecolor="#ffffff"
     bordercolor="#000000"
     borderopacity="0.25"
     inkscape:showpageshadow="2"
     inkscape:pageopacity="0.0"
     inkscape:pagecheckerboard="0"
     inkscape:deskcolor="#d1d1d1"
     showgrid="false"
     inkscape:zoom="1.0253906"
     inkscape:cx="247.71048"
     inkscape:cy="191.14667"
     inkscape:window-width="1366"
     inkscape:window-height="705"
     inkscape:window-x="-8"
     inkscape:window-y="-8"
     inkscape:window-maximized="1"
     inkscape:current-layer="svg6" /><path
     style="fill:#ffffff;stroke-width:0.971221"
     d="m 184.16915,503.49737 c -11.9963,-4.30656 -19.63615,-14.94168 -19.72464,-27.45789 -0.017,-2.409 2.47167,-21.16675 5.53044,-41.68389 5.33495,-35.78495 5.64181,-37.28246 7.5362,-36.77726 1.08614,0.28964 7.669,2.50592 14.62856,4.92505 11.59136,4.02913 31.36112,8.32289 38.32106,8.32289 1.54608,0 2.81105,0.24456 2.81105,0.54346 0,0.29891 -2.40649,16.55169 -5.34774,36.11729 -3.53136,23.49094 -6.01923,37.1415 -7.32468,40.18931 -5.67666,13.25314 -22.83107,20.70302 -36.43025,15.82104 z m 124.69361,0.18636 c -8.01243,-2.90611 -14.82765,-9.22974 -18.07737,-16.77347 -1.0975,-2.5477 -11.96518,-70.35835 -11.96518,-74.65871 0,-0.5871 4.12239,-1.55781 9.45347,-2.22602 11.78014,-1.47656 25.6942,-4.9847 37.73483,-9.51407 5.08388,-1.91242 9.56395,-3.11144 9.95571,-2.66447 0.39178,0.44695 3.23541,17.79852 6.31919,38.55904 6.03027,40.59666 6.18198,44.02952 2.30148,52.08043 -6.21129,12.88664 -22.72403,19.91166 -35.72213,15.19727 z m -87.70488,-106.0793 c -10.17911,-1.5794 -26.10702,-6.1251 -36.09952,-10.30249 -5.50669,-2.30209 -7.02608,-3.37153 -7.02608,-4.94541 0,-1.7104 12.44298,-86.40327 14.1086,-96.02986 l 0.57442,-3.31984 2.52521,4.29317 c 10.63729,18.08463 25.56632,31.21663 41.97643,36.92365 4.31071,1.49916 8.02962,2.91854 8.26424,3.15418 0.23462,0.23564 -1.98041,16.34885 -4.92228,35.80713 -2.94186,19.45829 -5.34885,35.50979 -5.34885,35.67002 0,0.56915 -5.45051,0.0841 -14.05217,-1.25055 z m 55.29451,-0.55736 c -1.07856,-4.80563 -10.27312,-68.33941 -10.00635,-69.14319 0.15452,-0.46559 3.82191,-2.07798 8.14978,-3.5831 14.79409,-5.14501 29.84408,-17.84462 39.98439,-33.73995 2.71841,-4.26121 4.94261,-7.26558 4.94269,-6.67638 7e-5,0.58918 3.27089,22.8395 7.26849,49.44515 3.99759,26.60564 7.26836,48.96816 7.26836,49.69448 0,3.67945 -32.30768,13.56091 -51.07966,15.62294 -5.76077,0.6328 -6.03752,0.56412 -6.5277,-1.61995 z m -34.48595,-81.48752 c -9.3543,-3.007 -17.49898,-8.07504 -25.21983,-15.69306 -8.31427,-8.20354 -13.66595,-15.732 -19.4293,-27.33207 -3.63142,-7.30909 -10.78824,-27.23135 -10.05678,-27.99478 0.1758,-0.18349 3.94972,0.56178 8.38647,1.65616 19.59537,4.83346 43.15284,7.92411 60.39901,7.92411 17.29323,0 41.65811,-3.20346 59.95507,-7.88281 4.19257,-1.07223 7.8782,-1.69307 8.19028,-1.37964 0.98221,0.98649 -5.62773,19.75172 -10.16133,28.84744 -10.85935,21.78699 -27.88832,37.60339 -45.42579,42.1912 -7.59671,1.9873 -19.89194,1.83195 -26.6378,-0.33655 z M 131.99933,303.86118 c -4.81894,-2.24081 -8.61795,-6.23329 -10.70424,-11.24936 -1.24998,-3.00533 -1.45549,-5.40186 -0.93844,-10.94349 0.36411,-3.90251 0.98428,-7.2955 1.37814,-7.53999 0.39388,-0.24449 3.51869,0.44482 6.94401,1.53177 7.46819,2.36989 23.09847,3.46571 28.38078,1.98975 l 3.73973,-1.04495 -0.65504,5.54747 c -1.04916,8.88545 -2.33931,12.63777 -5.64549,16.41968 -5.90634,6.75622 -14.83205,8.85445 -22.49945,5.28912 z m 233.73591,0.85555 c -7.89058,-2.37873 -12.73494,-9.7842 -13.8084,-21.10859 l -0.66465,-7.0117 3.75499,1.04918 c 5.31154,1.48409 20.91615,0.38806 28.43304,-1.99707 4.20689,-1.33485 6.47271,-1.65009 6.8976,-0.95963 1.52244,2.47409 1.7614,12.50035 0.40711,17.08063 -3.05343,10.32675 -14.33928,16.16696 -25.01969,12.94718 z M 141.4456,271.53372 c -11.49805,-1.92426 -21.91009,-7.29701 -23.06021,-11.89937 -0.68052,-2.72322 2.61027,-18.94809 6.85548,-33.80007 12.23974,-42.82116 35.19842,-77.68545 61.22314,-92.97152 3.35774,-1.97222 6.10491,-3.85663 6.10482,-4.18756 -9e-5,-0.33094 -0.65425,-4.03474 -1.45367,-8.23066 -1.49577,-7.85074 -1.85736,-29.875373 -0.64177,-39.090963 l 0.64194,-4.866657 5.81468,-0.279942 5.81469,-0.279941 6.17757,8.801234 c 8.13457,11.589409 20.97357,23.809269 30.23622,28.778129 6.94204,3.724 7.52333,3.86044 16.44758,3.86044 8.8074,0 9.62024,-0.18304 16.94386,-3.81565 9.27897,-4.6025 22.24517,-16.98233 30.91917,-29.520952 l 5.55501,-8.029984 h 5.62098 c 6.95061,0 6.73717,-0.542651 7.46551,18.979966 0.49333,13.22355 -0.36453,23.4424 -2.72587,32.47049 -0.20669,0.79025 2.38154,2.9481 6.42102,5.35332 9.03544,5.37998 27.46251,23.84425 34.63598,34.70593 10.84535,16.42141 18.76821,33.82587 25.39748,55.7916 4.18568,13.86903 8.53029,34.41414 7.77971,36.78928 -2.31793,7.33494 -27.78148,14.51866 -41.27989,11.64579 -3.00521,-0.63959 -6.18809,-1.96647 -7.07306,-2.94861 -0.88497,-0.98213 -2.67448,-6.54574 -3.97668,-12.36356 -1.3022,-5.81783 -3.30934,-13.64386 -4.46031,-17.39119 -1.70987,-5.56704 -2.05506,-8.87876 -1.88714,-18.10497 0.16584,-9.11126 -0.16244,-12.34312 -1.70007,-16.73701 -3.98386,-11.38409 -4.49942,-10.66166 -4.64587,6.50994 -0.0736,8.62331 -0.51517,17.64973 -0.98141,20.05873 l -0.84769,4.37999 -12.58619,3.15691 c -37.81697,9.48536 -70.24242,10.00747 -109.01312,1.75531 -18.81618,-4.00493 -19.64854,-4.3603 -20.70101,-8.83767 -0.4992,-2.12366 -0.95182,-11.20202 -1.00585,-20.17414 -0.10663,-17.7096 -0.50616,-18.40845 -4.45857,-7.79872 -1.54677,4.15211 -1.94143,7.6087 -1.9514,17.09151 -0.01,8.8902 -0.47209,13.35903 -1.8356,17.72679 -1.0027,3.21199 -2.99445,11.09598 -4.4261,17.51997 -1.43165,6.42398 -3.26553,12.4195 -4.07528,13.32337 -2.92739,3.26762 -14.35338,4.45708 -25.26808,2.63044 z m 129.62169,-90.92344 c 14.78541,-1.17666 45.009,-8.88296 52.12005,-13.28935 3.76469,-2.33282 6.99595,-8.1989 6.99595,-12.70057 0,-4.36271 -2.89811,-9.52598 -6.88228,-12.26148 -4.29493,-2.94887 -10.40913,-2.51502 -23.5992,1.67452 -17.57393,5.58198 -27.58495,7.2429 -43.6558,7.2429 -16.32763,0 -26.81677,-1.75759 -45.701,-7.65779 -12.3684,-3.86439 -16.95277,-4.17195 -21.41905,-1.43697 -5.03881,3.08556 -7.19191,7.37174 -6.74583,13.42892 0.6808,9.2445 3.9725,11.89741 21.27843,17.14913 14.66754,4.45107 28.2498,7.20719 40.70429,8.25976 9.70363,0.82009 11.87416,0.78708 26.90444,-0.40907 z m -35.37484,-79.3069 c -1.02401,-1.66411 38.83722,-41.681649 40.17773,-40.335294 0.64989,0.652716 -5.72402,7.695618 -19.2349,21.25374 -13.54499,13.592374 -20.4495,19.883244 -20.94283,19.081554 z m 12.70952,-3.71289 c -0.81771,-1.32884 23.27166,-24.850299 24.60358,-24.023549 0.79032,0.490575 -2.7719,4.711515 -10.78245,12.776274 -6.57947,6.624014 -12.27057,12.043665 -12.64688,12.043665 -0.3763,0 -0.90471,-0.35838 -1.17425,-0.79639 z m -9.67852,-9.712803 c -0.35333,-0.574195 16.80867,-18.712946 22.8305,-24.129849 0.3643,-0.327702 1.17498,-0.277622 1.80153,0.111289 0.73503,0.456251 -3.1048,4.979805 -10.82353,12.750773 -6.57947,6.624015 -12.27057,12.043663 -12.64688,12.043663 -0.37629,0 -0.89902,-0.349144 -1.16162,-0.775876 z m 59.47905,-7.725105 c 0,-14.562169 -12.22556,-29.437147 -28.33199,-34.471842 -7.72061,-2.413378 -19.99,-2.394123 -27.78851,0.04362 -15.02305,4.696044 -25.80706,16.577747 -28.06387,30.920457 -0.49173,3.125156 -0.69609,6.0106 -0.45414,6.412099 0.24196,0.401499 0.0871,0.727794 -0.34411,0.725099 -0.43121,-0.0027 -2.87872,-3.06869 -5.4389,-6.813321 -3.98663,-5.831026 -5.06484,-6.808424 -7.51064,-6.808424 -2.58095,0 -2.85336,-0.304417 -2.83075,-3.163327 0.0138,-1.73983 0.99999,-6.035645 2.19162,-9.546255 5.13067,-15.115268 15.57491,-27.218023 29.45546,-34.132879 4.70039,-2.341593 8.81223,-4.622157 9.13744,-5.067923 0.3252,-0.445766 1.16067,-3.194277 1.85658,-6.107804 l 1.26531,-5.2973202 14.541,0.267815 14.54101,0.267815 1.55069,5.6268152 1.5507,5.626814 7.97857,3.899326 c 16.98649,8.301729 30.09218,25.542791 32.70177,43.020491 l 0.68779,4.606432 h -3.50195 c -1.92606,0 -3.50193,0.381162 -3.50193,0.847025 0,0.465864 -2.18051,3.850978 -4.84557,7.522477 l -4.84558,6.675451 z M 262.36706,27.571429 c 4.42692,-5.652392 0.74101,-13.864387 -6.22295,-13.864387 -4.94251,0 -8.5294,3.423329 -8.5294,8.140452 0,8.21058 9.82057,12.020972 14.75235,5.723935 z"
     id="path262"
     sodipodi:nodetypes="ssssssssssssssssssssssscsssssssssssssssssssssssssssssssscssssscsssssssssssscccssssscssssssssssssssscssssscsssssssssssssssssssssssssssssssssssssssssssscccccsscssscsssss" /></svg>
