<?xml version="1.0" encoding="UTF-8" standalone="no"?>
<svg
   viewBox="0 0 512 512"
   style="height: 512px; width: 512px;"
   version="1.1"
   id="svg6"
   sodipodi:docname="riot-helmet.svg"
   inkscape:version="1.2.1 (9c6d41e410, 2022-07-14)"
   xml:space="preserve"
   xmlns:inkscape="http://www.inkscape.org/namespaces/inkscape"
   xmlns:sodipodi="http://sodipodi.sourceforge.net/DTD/sodipodi-0.dtd"
   xmlns="http://www.w3.org/2000/svg"
   xmlns:svg="http://www.w3.org/2000/svg"><defs
     id="defs10" /><sodipodi:namedview
     id="namedview8"
     pagecolor="#ffffff"
     bordercolor="#000000"
     borderopacity="0.25"
     inkscape:showpageshadow="2"
     inkscape:pageopacity="0.0"
     inkscape:pagecheckerboard="0"
     inkscape:deskcolor="#d1d1d1"
     showgrid="false"
     inkscape:zoom="1.0253906"
     inkscape:cx="246.73524"
     inkscape:cy="256.48762"
     inkscape:window-width="1366"
     inkscape:window-height="705"
     inkscape:window-x="-8"
     inkscape:window-y="-8"
     inkscape:window-maximized="1"
     inkscape:current-layer="svg6" /><path
     style="fill:#ffffff"
     d="m 148.2929,478.35063 c -3.41391,-0.74192 -9.26391,-2.8007 -13,-4.57507 -9.31388,-4.42341 -20.77824,-15.87858 -25.19145,-25.17127 -6.15754,-12.9656 -6.06502,-11.26891 -6.08409,-111.57518 l -0.0174,-91.32945 2.75,0.56403 c 4.74215,0.97261 38.92072,4.50195 58.75,6.06662 59.87411,4.7245 119.22402,4.72322 181,-0.004 18.7982,-1.43844 52.65158,-4.85707 58.75,-5.93278 l 2.75,-0.48496 -0.0174,91.225 c -0.0191,100.19184 0.0729,98.50621 -6.08409,111.47072 -4.40417,9.27366 -15.87917,20.74866 -25.15283,25.15283 -13.07736,6.21061 -10.29554,6.07284 -121.24572,6.00459 -80.83368,-0.0497 -102.23935,-0.33148 -107.2071,-1.41108 z M 83.954442,351.12568 c -8.94552,-14.10561 -11.04658,-22.19887 -11.68677,-45.01711 l -0.51202,-18.25 h 8.12217 8.12218 v 34 c 0,18.7 -0.23491,34 -0.52203,34 -0.28711,0 -1.8727,-2.1298 -3.52353,-4.73289 z m 340.078828,-29.01711 -0.0333,-34.25 h 8.12217 8.12217 l -0.51202,18.25 c -0.39772,14.17631 -0.95169,19.7009 -2.48176,24.75 -2.21868,7.32144 -7.96824,19.23043 -11.10422,23 l -2.0798,2.5 -0.0333,-34.25 z m -368.033272,-66.25 v -16 h 3.510764 c 3.15798,0 18.71047,2.17601 25.73924,3.60128 l 2.75,0.55763 v 13.92055 13.92054 h -16 -16.000004 z M 424,257.90388 V 243.9492 l 3.25,-0.55494 c 11.82995,-2.01998 22.72011,-3.52823 25.5,-3.53167 l 3.25,-0.004 v 16 16 H 440 424 Z M 214,238.77513 c -41.9096,-1.57792 -83.71474,-5.39386 -125.999998,-11.5012 -17.81606,-2.5732 -16.00013,-1.46715 -15.99917,-9.74482 0.005,-40.50517 13.6379,-81.3891 37.629378,-112.84507 7.47043,-9.794704 23.01247,-25.535804 32.9089,-33.330394 48.10006,-37.88437 112.12772,-49.09323 171.22514,-29.97515 13.89173,4.49399 36.19913,15.71496 48.20707,24.24889 11.62805,8.26395 30.05122,25.86623 38.85275,37.121564 23.88533,30.5444 36.97478,66.83116 38.8292,107.64287 l 0.65064,14.31911 -3.40196,0.56126 c -12.20307,2.01329 -17.05133,2.72509 -30.90195,4.53689 -62.85962,8.2227 -129.31642,11.3261 -192,8.96605 z"
     id="path234" /></svg>
