<?xml version="1.0" encoding="UTF-8" standalone="no"?>
<svg
   viewBox="0 0 512 512"
   style="height: 512px; width: 512px;"
   version="1.1"
   id="svg16"
   sodipodi:docname="dodge2.svg"
   inkscape:version="1.2.1 (9c6d41e410, 2022-07-14)"
   xmlns:inkscape="http://www.inkscape.org/namespaces/inkscape"
   xmlns:sodipodi="http://sodipodi.sourceforge.net/DTD/sodipodi-0.dtd"
   xmlns="http://www.w3.org/2000/svg"
   xmlns:svg="http://www.w3.org/2000/svg">
  <defs
     id="defs20" />
  <sodipodi:namedview
     id="namedview18"
     pagecolor="#505050"
     bordercolor="#eeeeee"
     borderopacity="1"
     inkscape:showpageshadow="0"
     inkscape:pageopacity="0"
     inkscape:pagecheckerboard="0"
     inkscape:deskcolor="#505050"
     showgrid="false"
     inkscape:zoom="1.6191406"
     inkscape:cx="166.44632"
     inkscape:cy="256.30881"
     inkscape:window-width="1920"
     inkscape:window-height="1009"
     inkscape:window-x="-8"
     inkscape:window-y="-8"
     inkscape:window-maximized="1"
     inkscape:current-layer="g14" />
  <g
     class=""
     transform="matrix(-1,0,0,1,513.087,63.57)"
     id="g14">
    <path
       d="m 424.12983,136.94961 c -7.507,-12.58781 -29.46353,-17.47661 -44.5349,-16.35555 -18.0287,1.34164 -44.43355,10.35002 -53.25977,25.43663 l -12.60513,-8.30163 c 0.28697,-6.90728 -12.6597,-46.549153 -23.63568,-59.788453 -19.98497,-20.1446 -45.36123,-34.48115 -69.75698,-49.874303 l -16.51084,24.217929 c 20.89329,14.389016 46.57841,21.972201 62.2237,44.027752 12.49225,17.608695 8.05736,35.578765 10.43401,53.052105 -59.4872,34.77167 -95.26921,37.99664 -165.22768,36.87887 C 83.152596,172.2475 64.388252,143.0615 43.101771,117.49277 l -17.691763,25.46485 c 25.781537,32.11621 50.156032,63.40681 79.224272,79.3926 65.82186,28.06999 97.66886,41.00908 155.95918,79.22008 7.62677,30.80336 -12.09577,55.53033 -23.71984,78.69262 l 31.873,8.94869 c 16.93014,-24.86342 29.89559,-69.71297 30.8951,-111.28394 -17.77872,-15.76512 -37.38537,-28.90375 -58.88782,-39.31752 24.54231,-7.09743 41.74744,-17.50296 58.53818,-37.40485 3.85266,19.63312 10.30789,36.88617 19.44203,51.68254 31.71292,12.98988 61.71859,12.52935 92.38963,17.31114 l 3.70458,-24.60745 c -24.71573,-4.2773 -45.83098,-2.60994 -74.15878,-12.85295 -7.34167,-14.63549 -9.48277,-31.96503 -10.64288,-49.80203 l 5.09903,-6.28107 c 13.66135,9.74295 36.22439,13.32815 51.491,10.12962 19.34505,-4.05234 43.63365,-24.58011 39.78438,-43.96628 -0.42011,-2.11874 -1.19781,-4.07123 -2.27038,-5.86973 z"
       fill="#ffffff"
       fill-opacity="1"
       id="path12"
       sodipodi:nodetypes="ccccccccccccccccccccccccccccc" />
  </g>
</svg>
