<?xml version="1.0" encoding="UTF-8" standalone="no"?>
<svg
   viewBox="0 0 512 512"
   style="height: 512px; width: 512px;"
   version="1.1"
   id="svg300"
   sodipodi:docname="swim.svg"
   inkscape:version="1.2.1 (9c6d41e410, 2022-07-14)"
   xmlns:inkscape="http://www.inkscape.org/namespaces/inkscape"
   xmlns:sodipodi="http://sodipodi.sourceforge.net/DTD/sodipodi-0.dtd"
   xmlns="http://www.w3.org/2000/svg"
   xmlns:svg="http://www.w3.org/2000/svg">
  <defs
     id="defs304" />
  <sodipodi:namedview
     id="namedview302"
     pagecolor="#505050"
     bordercolor="#eeeeee"
     borderopacity="1"
     inkscape:showpageshadow="0"
     inkscape:pageopacity="0"
     inkscape:pagecheckerboard="0"
     inkscape:deskcolor="#505050"
     showgrid="false"
     inkscape:zoom="1.6191406"
     inkscape:cx="167.06394"
     inkscape:cy="256.92642"
     inkscape:window-width="1920"
     inkscape:window-height="1009"
     inkscape:window-x="-8"
     inkscape:window-y="-8"
     inkscape:window-maximized="1"
     inkscape:current-layer="svg300" />
  <g
     id="g347"
     transform="matrix(0.7952669,0,0,0.7952669,1.4545433,52.410884)">
    <path
       style="fill:#ffffff;stroke-width:0.617612"
       d="m 100.05308,254.78181 c -16.900088,-2.80194 -31.097718,-9.9189 -43.184629,-21.64753 -3.306168,-3.20816 -7.58491,-8.01869 -9.508315,-10.69007 -11.045211,-15.34045 -16.552517,-35.34753 -14.672508,-53.30265 2.253361,-21.52083 10.935878,-38.66432 26.746478,-52.81049 13.653909,-12.21652 30.485456,-18.965998 49.265534,-19.755566 38.34165,-1.611992 71.5479,23.629576 80.9491,61.533056 1.85873,7.49397 2.31971,22.86841 0.92591,30.88058 -5.70404,32.78929 -30.3787,58.30158 -63.03786,65.17779 -6.70744,1.41222 -20.77609,1.72696 -27.48371,0.61488 z"
       id="path260" />
    <path
       style="fill:#ffffff;stroke-width:0.617612"
       d="m 215.6981,319.26159 c -11.59002,-1.12055 -20.90931,-4.77203 -28.57363,-11.19569 -2.55417,-2.14071 -6.49116,-5.09075 -8.74887,-6.55565 l -4.10494,-2.66345 35.53692,-50.75995 c 19.5453,-27.91797 37.51752,-53.10269 39.93825,-55.96603 2.42074,-2.86334 6.90266,-7.39282 9.95984,-10.0655 5.71284,-4.99436 87.16201,-63.5599 96.22776,-69.192 21.01065,-13.052877 47.82695,-18.8665 72.0714,-15.624672 8.57559,1.14668 109.53768,22.789322 115.5228,24.763942 12.25833,4.04428 23.25785,14.3148 28.28982,26.41492 11.23641,27.01954 -3.93583,57.37819 -32.33373,64.69769 -3.45876,0.89149 -6.8862,1.27362 -11.42582,1.2739 -6.09239,3.6e-4 -9.62521,-0.67834 -58.36429,-11.21248 -33.97164,-7.34241 -53.1585,-11.21956 -55.58505,-11.23224 -2.03811,-0.0106 -4.6784,0.38892 -5.86731,0.88793 -3.23422,1.35747 -21.7652,14.78449 -21.1889,15.35288 0.2744,0.27064 25.62412,18.43522 56.3327,40.36574 50.84131,36.30831 55.62974,39.87368 53.55177,39.87368 -1.25511,0 -4.42423,0.43791 -7.04247,0.97313 -13.54838,2.76957 -26.69664,9.5658 -38.72909,20.01878 -13.13447,11.41031 -44.3155,13.73085 -62.99638,4.68826 -2.37781,-1.15099 -6.76066,-4.14193 -9.73969,-6.64654 -10.24054,-8.60972 -21.20129,-14.44208 -33.18432,-17.6578 -5.41174,-1.45228 -7.12964,-1.5955 -22.12509,-1.84456 -13.30222,-0.22093 -17.38795,-0.081 -22.47459,0.76951 -14.38197,2.40484 -26.9715,8.48813 -39.7043,19.18523 -8.1021,6.80676 -16.47945,10.04557 -29.41749,11.37327 -6.85289,0.70323 -8.34272,0.70114 -15.8253,-0.0223 z"
       id="path262" />
    <path
       style="fill:#ffffff;stroke-width:0.617612"
       d="m 10.961351,414.81161 c -2.8757927,-1.07615 -6.179425,-3.55607 -7.7223974,-5.79693 -2.81712211,-4.09129 -2.93014781,-5.06215 -2.93014781,-25.16908 0,-18.1141 0.0695056,-19.29612 1.28966441,-21.93215 1.6490274,-3.56255 4.7398798,-6.64527 8.2763824,-8.25461 2.5064674,-1.14061 4.4913174,-1.30989 19.7705034,-1.68617 17.721246,-0.43642 21.283396,-0.82734 30.717593,-3.37098 11.202231,-3.02033 20.670945,-7.91724 28.573119,-14.77707 7.401321,-6.42505 14.635292,-10.47695 22.097342,-12.37721 3.14469,-0.80081 6.64752,-0.95044 18.52834,-0.79145 14.08373,0.18846 14.82515,0.25978 19.16321,1.84336 5.79432,2.11516 11.73894,5.72253 17.4818,10.60844 10.71207,9.11364 20.50414,13.73723 36.36984,17.17303 5.68779,1.23171 8.26898,1.40708 20.99879,1.42667 12.64291,0.0195 15.39152,-0.15576 21.3222,-1.3592 15.11853,-3.06782 27.03527,-8.49403 35.80687,-16.30446 4.79389,-4.26857 8.9933,-7.11393 13.96516,-9.46222 8.00441,-3.78061 10.5135,-4.14583 26.96934,-3.92562 14.06156,0.18816 14.83086,0.26188 19.13562,1.83376 5.40565,1.97387 11.90273,5.94824 17.74894,10.85733 10.6607,8.95183 20.44274,13.53652 36.13028,16.93374 5.68779,1.23171 8.26898,1.40708 20.99879,1.42667 11.53599,0.0177 15.65434,-0.20458 20.07238,-1.08362 14.23222,-2.83172 25.96784,-7.81349 34.31124,-14.56512 11.66968,-9.4433 17.48728,-12.8596 24.8583,-14.59768 5.35101,-1.26177 28.85997,-1.26177 34.21098,0 7.36849,1.73748 13.19114,5.15609 24.84439,14.58668 8.26736,6.69052 19.4084,11.52873 32.74306,14.21932 5.30716,1.07084 9.74627,1.38879 23.81611,1.70578 l 17.29312,0.38961 3.39686,1.89729 c 3.69209,2.06218 6.92003,6.10136 8.00888,10.0216 0.35995,1.29607 0.63225,9.71387 0.63423,19.60658 0.006,19.75184 -0.36884,22.08965 -4.20025,26.33991 -1.25468,1.3918 -3.67084,3.17904 -5.36927,3.97164 -2.94002,1.37199 -3.73946,1.44127 -16.67552,1.445 -14.93927,0.004 -24.07437,-0.64301 -34.9568,-2.47708 -22.79455,-3.84168 -44.43159,-12.71572 -60.59052,-24.85009 -5.3008,-3.98058 -5.83756,-4.24341 -7.07277,-3.46317 -0.73516,0.46438 -3.93239,2.68351 -7.10496,4.93141 -49.4478,35.0358 -129.89795,34.37441 -177.86322,-1.46224 -3.06889,-2.29288 -5.76319,-4.16838 -5.98732,-4.16777 -0.22414,6e-4 -2.59323,1.63866 -5.26464,3.64011 -37.3102,27.95317 -94.54274,35.68057 -143.7969,19.41511 -13.53831,-4.47082 -27.05598,-11.45081 -37.69365,-19.46349 -2.62342,-1.97606 -4.95384,-3.59284 -5.1787,-3.59284 -0.22486,0 -2.80315,1.76667 -5.72953,3.92593 -18.56383,13.69751 -40.833936,22.38565 -66.773048,26.04986 -10.031272,1.41704 -41.378726,1.89572 -44.623691,0.68142 z"
       id="path264" />
  </g>
</svg>
